<svg xmlns="http://www.w3.org/2000/svg" xmlns:xlink="http://www.w3.org/1999/xlink" width="660" height="447" viewBox="0 0 660 447"><defs><path id="gglda" d="M1375.99 337.55l-.32-.64a8.67 8.67 0 0 1-2.12 2.65V445.7c1.59.22 3.18.53 4.77.75v-39.62-69.39c-.43.85-1.7.85-2.33.1z"/><path id="ggldb" d="M1391.13 310.64c-7.73 4.02-11.65 12.81-13.34 21.08 0-2.54 0-4.98.1-7.52.32-4.66.85-9.22 1.7-13.78.85-4.44 2.22-8.9 2.96-13.34.11-.53-.63-.96-.84-.43-3.6 7.31-4.77 16.21-5.51 24.26 0 .43-.1.74-.1 1.17.1-7.2.31-14.4 0-21.61 0-.53-.75-.53-.86 0-1.16 8.9-1.16 18-1.27 27.01v12.92a66.5 66.5 0 0 0-2.43-9c-3.5-10.49-9.11-20.45-17.06-28.18-.21-.21-.63.1-.42.43 6.78 8.68 12.29 18.22 15.68 28.7a79.19 79.19 0 0 1 4.02 23.73v1.6c-.32-1.07-.53-2.13-.95-3.08-2.65-7.42-8.69-15.47-17.27-15.26-.32 0-.32.53 0 .53 8.9 0 14.4 10.92 16.31 18.23 1.17 4.44 1.49 9 1.7 13.55.21 4.35-.21 9.11.74 13.35.1.32.64.43.74 0 .53-2.33.32-4.76.32-7.2 0-2.86.1-5.72 0-8.48l-.32-4.66c.1-.1.21-.2.32-.42.64-2.86.74-5.93.64-9.11.2-.1.31-.42.31-.74-.1-2.86-.1-5.62-.1-8.48.1-.2.21-.32.32-.53-.11 2.23-.11 4.45-.11 6.68 0 6.56-.21 13.03.21 19.6.1.84 1.17.84 1.27 0 1.8-20.77-3.7-44.92 13.56-60.6.21-.21-.1-.53-.32-.42z"/><path id="ggldc" d="M1355.75 232.77c-.64 0-.64.95 0 .95.63 0 .63-.95 0-.95z"/><path id="ggldd" d="M1352.26 316.57c-4.03-7.73-16.53-11.23-25.21-15.68-8.69-4.45-6.89-.42-11.23-7.2-4.24-6.78-8.8-11.44-15.15-14.83-6.36-3.5-8.05-20.23 7.42-12.5 15.57 7.73 41.95 29.98 43.96 44.17.32 2.97.21 6.04.21 6.04z"/><path id="gglde" d="M1341.87 297.3a.83.83 0 0 0-.42-.43c-2.76-2.76-5.93-5.3-8.69-7.63-.1-.21-.21-.32-.42-.32-.74-.53-1.38-1.16-2.01-1.7-4.88-4.23-9.64-8.68-15.05-12.28a97.34 97.34 0 0 0-5.61-3.28c-3.82-1.91-7.73-3.5-11.76-4.98-.21-.1-.42.31-.21.42 3.5 1.59 6.99 3.07 10.38 4.87-.95.43-1.9 1.06-2.86 1.38-1.8.74-3.81.85-5.72.74 0 0-.1.1 0 .1 1.9.86 3.7.86 5.72.64 1.38-.2 3.5-.74 4.34-2 1.49.84 2.97 1.69 4.35 2.64a80 80 0 0 1 5.72 4.24h-.22c-1.37.31-2.54 1.06-3.92 1.37-1.69.43-3.39.53-5.08.11-.21 0-.32.21-.1.32 2.85.85 7.2 1.59 9.63-.85.22-.1.22-.32.11-.53 1.38 1.06 2.65 2.23 3.92 3.39-.64 1.27-.32 3.18-.74 4.56a13.48 13.48 0 0 1-2.97 5.72c-.1.1 0 .42.21.2 1.8-1.37 3.29-2.75 4.13-4.97.43-1.17.85-2.97.64-4.45 1.06.95 2.23 1.9 3.28 2.86.85.74 1.8 1.48 2.65 2.22v.11c.74 3.5-.31 7.1-2.12 10.06-.2.22.22.43.43.32 2.75-2.22 3.81-5.5 3.5-9a73.85 73.85 0 0 1 7.3 6.78c0 2.65-.84 4.76-2.01 7.1-.1.2.21.52.42.31a10.23 10.23 0 0 0 2.97-6.04 30.95 30.95 0 0 1 7.1 13.25c.1.31.63.31.63-.11.22-5.83-3.17-10.8-7.52-15.15z"/><path id="ggldf" d="M1357.23 307.46c-22.25-8.69-17.58-12.29-24.26-17.16-6.67-4.87-14.09-11.23-13.03-23.2 1.17-11.86 8.8-8.8 14.2-8.9 5.4-.1 9.1-16.1 14.93-15.89 5.72.32 9.43 17.59 10.8 27.33 1.39 9.75 4.03 8.58.11 22.36-3.91 13.77-2.75 15.46-2.75 15.46z"/><path id="ggldg" d="M1357.34 286.28c.1-.22-.2-.43-.31-.22-1.28 1.6-2.55 3.18-3.6 4.88-.85 1.16-1.91 2.54-2.65 3.81-.96-2.12-1.91-4.34-2.86-6.46 1.69-4.03 3.8-7.95 6.88-11.13.1-.1-.1-.31-.21-.2-2.97 2.75-5.62 5.71-7.52 9.2a68.9 68.9 0 0 1-1.8-4.97c-.1-.21-.1-.53-.22-.74 1.7-1.7 2.87-4.03 4.03-6.15a143.7 143.7 0 0 1 5.3-8.58c.1-.2-.1-.31-.32-.2-2.33 1.9-3.92 4.65-5.5 7.09-1.28 1.9-2.76 3.7-4.14 5.61a54.86 54.86 0 0 1-1.59-14.3c.53-.84 1.06-1.8 1.7-2.65 1.58-2.33 4.13-6.67 7.1-7.41.2 0 .1-.32 0-.32-2.02-.63-3.5 1.17-4.77 2.54a58.7 58.7 0 0 0-3.92 4.77c.1-1.8.31-3.6.63-5.4.1-.53-.63-.74-.74-.21a30.86 30.86 0 0 0-1.59 8.26c-1.38 2.33-2.65 4.98-5.08 6.25-2.65 1.48-6.04 1.27-8.9 2.33-.85.32-.43 1.59.32 1.27 4.66-1.7 9.42-.95 12.6-5.4.32-.43.64-.95.96-1.48.1 4.34.84 8.68 1.8 12.7-3.6 2.23-7.84 1.17-11.97 1.5-.22 0-.22.3 0 .3 2.96.54 6.25.96 9.32.75.95 0 1.9-.21 2.65-.64.2.22.42.32.63.22a73.39 73.39 0 0 0 2.01 6.35c-1.05 0-2.22.32-3.39.32a12.3 12.3 0 0 1-6.03-1.9c-.22-.11-.43.2-.22.42a14.47 14.47 0 0 0 6.04 2.54c1.27.21 2.76.42 4.03 0a69.6 69.6 0 0 0 2.75 6.46c-2.12-.1-4.13-.42-6.04-1.27-.1-.1-.31.1-.1.21 2.12 1.38 4.45 2.44 6.99 2.54a62.32 62.32 0 0 0 4.13 6.89c.21.32.74.1.64-.32-.74-2.54-1.8-4.98-2.86-7.41 1.16-1.27 1.8-3.18 2.65-4.66 1.05-1.6 2.11-3.4 3.17-5.2z"/><path id="ggldh" d="M1346.75 268.68c-1.17-26.37 2.01-31.03-15.05-42.69-17.16-11.65-26.16-34.74-18.11-38.24 7.94-3.5 9.32 18.75 17.48 23.52s20.97-2.44 23.2 6.57c2.22 9 11.23 2.54 13.13 13.03 2.02 10.48-11.54 13.66-11.75 25.84-.11 12.3-4.56 23.63-8.9 11.97z"/><path id="ggldi" d="M1360.1 237.64c-.53-3.17-2.97-6.35-4.35-9.32-1.48-3.07-2.96-6.35-5.72-8.37-5.4-3.92-12.7-1.06-18.22-4.45-3.28-2-5.3-5.61-7.1-8.79a126.13 126.13 0 0 1-6.14-12.6c-.1-.22-.32-.11-.32.1.64 1.8 1.38 3.82 2.12 5.72-1.06-.21-2.12-.32-3.18-.85a10.63 10.63 0 0 1-3.5-2.54c-.1-.1-.41 0-.3.21 1.58 2.12 4.55 4.35 7.4 4.14.75 2 1.7 3.91 2.66 5.82 0 0-.11 0-.22-.1-.84-.11-1.7.1-2.54.1-.95 0-1.9-.1-2.75-.32-.22 0-.32.22-.1.32 1.58.74 3.8 1.48 5.5.85.21-.1.32-.21.32-.32a33.76 33.76 0 0 0 4.55 6.89 7.95 7.95 0 0 0 2.01 1.8c-1.05 0-2.11.32-3.17.32a7.73 7.73 0 0 1-3.71-.96c-.1-.1-.32.1-.21.21 1.8 1.6 5.3 2.86 7.3.96.11-.1.11-.21.11-.32 3.71 2.54 8.16 2.44 12.71 3.18a19.34 19.34 0 0 1-12.07 3.07c-.1 0-.1.1 0 .21 4.55 1.7 9.85.53 13.35-2.86l.1-.1c.32.1.64.1.85.2 2.86.75 4.66 2.44 6.14 4.56-3.6 1.49-6.88 3.18-10.8 3.6-.32 0-.32.43 0 .53 3.92.22 8.47-.31 11.44-3.07.42.74.85 1.38 1.27 2.12 1.06 1.9 2.01 3.81 3.07 5.62.32.63.74 1.27 1.06 1.9h-.21c-1.38.64-2.54 1.48-4.13 1.7a7.56 7.56 0 0 1-4.77-1.06c-.32-.21-.63.2-.32.42 2.65 2.12 7.63 2.86 9.96-.1a6.1 6.1 0 0 1 .43 4.34c-1.8 6.14-6.47 12.4-3.4 18.96.11.32.64.1.53-.21-1.48-4.45-.31-8.8 1.6-12.93 1.05-2.54 3.28-5.61 2.75-8.58z"/><path id="ggldj" d="M1367.62 270.6c-11.65-5.83-18.54-1.28-17.16-13.46 1.38-12.18 3.18-6.78-1.38-15.15-4.55-8.37-8.9-7.52-3.39-14.2 5.51-6.67 1.38-5.71 4.34-10.48 2.97-4.87 2.02-2.65 9.96-4.77 7.95-2.22 11.97-6.46 11.97-6.46s6.36 4.87 9 10.49c2.66 5.61 9.22 9.64 5.62 17.16-3.6 7.63 3.18 14.72 1.8 18.54-1.37 3.81-1.8 3.5-4.66 6.67-2.86 3.07-4.66 6.25-5.4 9-.53 2.87-10.7 2.65-10.7 2.65z"/><path id="ggldk" d="M1373.44 255.23c-.21-4.77-.53-9.54-1.9-14.1a38.66 38.66 0 0 0-5.62-11c3.07-4.46 2.33-9.97 1.9-15.05 0-.21-.31-.21-.31 0 .2 4.77-.21 9.64-2.65 13.77a73.4 73.4 0 0 0-7.73-8.47c-.32-.32-.75.2-.53.53a73.82 73.82 0 0 1 6.25 7.73c-4.03.74-7.31 4.87-11.66 4.45-.31 0-.31.42-.1.42 2.33.64 4.24-.21 6.35-1.06 1.91-.74 4.45-1.48 6.15-2.86 1.9 2.86 3.5 5.83 4.76 8.9-.52.74-1.05 1.48-1.8 2.01a7.9 7.9 0 0 1-4.55 1.6c-2.54.2-5.09.1-7.52.2-.32 0-.43.53-.1.64 3.38.53 7.09 1.27 10.48.42a7.65 7.65 0 0 0 4.24-2.75l.95 3.18c.53 2.01.85 4.13 1.17 6.14h-.22c-2.43 1.06-4.23 2.33-7.1 2.44-2.85.1-5.71-.64-8.57-.85-.22 0-.32.32-.11.42 2.97 1.49 6.46 2.44 9.85 2.12 2.12-.2 5.09-.95 6.36-2.86.31 2.33.53 4.77.74 7.1l.32 3.5c-.22-.22-.53-.32-.96-.11-4.13 1.8-11.33.42-14.83-2.33a.23.23 0 0 0-.32.32c2.44 2.22 5.2 3.18 8.37 3.92 2.55.63 5.62 1.37 7.63-.64 0 0 0-.1.1-.1.32 2.86.85 5.61 2.02 8.15.1.32.53.1.53-.21-.43-5.2-1.27-10.28-1.59-15.57z"/><path id="ggldl" d="M1376.09 268.05c-8.8-3.92-2.65-10.81-1.06-17.38 1.59-6.57-1.7-10.6-.64-17.27s7.84-18.32 15.79-19.8c7.94-1.49 11.12-8.7 15.15-14.84 4.02-6.14 29.66-7.83 31.88-3.17 2.23 4.66-.1 2.64-6.25 10.48-6.14 7.84-19.91 26.28-31.67 33.16-11.87 6.78-14.62 30.93-23.2 28.82z"/><path id="ggldm" d="M1431.28 196.01c-3.7.53-7.41 1.6-10.91 2.97 0-.43.1-.96.21-1.38.42-1.16.95-2.33 1.59-3.39.1-.1-.1-.32-.21-.21-.85.95-1.6 1.9-2.12 3.18-.32.74-.74 1.48-.85 2.22a47.53 47.53 0 0 0-4.02 2.01c-2.12 1.17-4.35 2.55-5.94 4.45-.42.53-.84 1.06-1.16 1.7.1-.95.1-2.01.32-2.97a23.57 23.57 0 0 1 2.22-5.93c.1-.21-.21-.53-.42-.32-2.33 2.86-4.66 8.16-3.29 11.87-.31.74-.53 1.59-.74 2.33a17.62 17.62 0 0 1-2.12 4.23c-.74-.53-1.37-.95-1.7-1.9-.3-.96-.2-2.12-.2-3.18 0-1.9.31-3.7.42-5.5 0-.22-.21-.22-.32 0-.84 2.43-1.8 6.35-1.37 9 .2 1.16 1.05 2.54 2.22 2.64a19.45 19.45 0 0 1-7.73 5.83c-.53-.85.1-2.75.31-3.6.32-1.27 1.06-2.97 2.34-3.6.31-.1 0-.53-.22-.43a6.12 6.12 0 0 0-3.6 4.56c-.21.85-.63 2.65-.1 3.7-2.02.75-4.35 1.6-6.15 2.97 0-1.06-.1-2.01-.1-3.07 0-1.8 0-3.6-.22-5.3 0-.1-.1-.1-.1 0-.74 2.76-1.27 6.57-.64 9.43a5.52 5.52 0 0 0-1.27 2.33c-.1.21.21.43.42.21.43-.53.85-.95 1.38-1.37 1.6 4.55 8.26 6.25 12.4 5.19.31-.1.1-.43-.11-.43-2.44.43-4.98-.1-7.1-1.37-1.8-1.17-2.75-2.76-3.92-4.35a32.6 32.6 0 0 1 6.68-3.28c.31 0 .63-.1.74-.32.32-.1.53-.21.85-.32h.1c2.23 3.29 5.2 5.2 9 6.25.11 0 .22-.2.11-.2a16.94 16.94 0 0 1-8.15-6.47c2.96-1.48 5.5-3.5 7.3-6.14a14.88 14.88 0 0 0 9.75 3.5c.21 0 .32-.33.1-.43-3.38-.74-6.46-1.8-9.21-4.03l.53-.85c.95-1.69 1.48-3.6 2.22-5.5 4.35 1.9 9.22 1.7 13.46-.32.32-.1.1-.64-.21-.53a17.3 17.3 0 0 1-12.82-.32c.1-.1.1-.32.21-.42 1.38-2.76 3.81-4.35 6.36-5.93l2.86-1.6c3.17 2.12 8.37 1.17 11.76.22.2-.1.1-.32-.11-.32-2.23.42-4.56.42-6.78.21-1.17-.1-2.33-.53-3.5-.74l.11-.1v-.11a62.4 62.4 0 0 1 11.55-4.13c.31-.21.2-.74-.11-.64z"/><path id="ggldn" d="M1379.27 219.96c-5.4-3.28-4.24-10.17-1.6-18.22 2.66-8.05-4.76-24.79 2.02-26.27 6.89-1.48 11.76 2.22 16.74-2.01 4.98-4.35 17.37-13.78 23.4-10.6 5.94 3.18 9.86 2.65-1.05 7.42-10.8 4.76-12.6 15.46-17.37 19.28-4.77 3.7-8.06 11.44-12.61 18.85-4.66 7.31-7 13.03-9.53 11.55z"/><path id="ggldo" d="M1419.52 165.5v-.1c0-.1-.1-.1-.1 0-1.8-1.48-5.83 1.27-7.42 2.12-3.7 1.9-7.1 4.34-10.38 7a62 62 0 0 0-9.75 9.95l-.2.21a46.92 46.92 0 0 0-5.1 8.58c-.63.1-.84 1.17-.1 1.27 2.44.43 4.77.21 7.2-.32 1.27-.2 2.86-.52 2.86-2.11 0-.22-.31-.32-.42-.11-.74 1.48-3.28 1.27-4.66 1.38-1.27.1-2.54.1-3.92 0 1.8-2.55 3.5-5.09 5.4-7.42 3.18 1.27 7.31.53 10.07-1.16.2-.1.1-.53-.22-.43-1.7.53-3.5.96-5.3.96-1.26 0-2.43-.32-3.6-.64a70.33 70.33 0 0 1 5.94-6.67c2.22 1.37 5.72 1.06 7.73-.32.1-.1.1-.32-.1-.32-1.38.32-2.87.64-4.24.43a9.3 9.3 0 0 1-2.44-.75c2.12-1.9 4.34-3.7 6.68-5.3h.1c3.5.11 6.78-.73 9.32-3.17.1-.1 0-.32-.2-.21a19.38 19.38 0 0 1-7.64 2.33c1.49-.96 2.97-1.9 4.56-2.76 1.06-.63 4.55-3.07 5.5-2.12.11.11.11.11.22.11v.1c0 .11.21.11.21 0v-.1c.1-.1.21-.21 0-.42z"/><path id="ggldp" d="M1367.83 217.2c-10.5-4.98-12.19-6.36-11.23-23.1.84-16.73-3.71-25.63-17.27-31.88-13.56-6.25-31.67-27.12-25-37.6 6.67-10.5 9.64 6.46 9.64 6.46 2.22-8.8 16.84-2.33 22.78 15.57 6.03 17.9 24.68 15.46 26.27 36.33 1.59 20.77-1.27 36.13-5.2 34.22z"/><path id="ggldq" d="M1365.82 168.47c0-.21-.32-.21-.32 0-.21.85-1.9.74-2.44.63a19.34 19.34 0 0 1-5.3-2.01 23.5 23.5 0 0 1-5.93-4.76c-3.5-3.82-5.93-8.7-8.05-13.46-1.48-3.18-2.86-6.67-6.46-8.05-2.12-.85-4.55-.85-6.67-1.7-3.4-1.27-5.4-4.02-4.87-7.62 0-.32-.32-.53-.53-.21-1.28 2.12-.85 4.02.31 5.72-1.48-.64-2.96-1.06-4.23-2.44a9.6 9.6 0 0 1-2.97-7c0-.2-.32-.2-.32 0-.21 2.76.64 5.3 2.44 7.42 1.48 1.8 4.13 3.92 6.67 3.5a13.29 13.29 0 0 0 4.24 2.44c1.9.63 3.81.95 5.4 1.7-.95.1-1.9.42-2.65.52-3.6.74-7.41 1.59-10.59-.95-.21-.1-.53 0-.32.21 1.27 1.8 3.4 2.65 5.51 2.75 1.38.11 2.65-.1 4.03-.31 1.27-.22 4.66-1.38 6.25-.75.31.32.53.64.84 1.06 1.28 1.91 2.12 4.14 3.18 6.25a5.54 5.54 0 0 0-1.7-.63c-3.91-1.17-8.26 1.06-12.07-.53-.21-.1-.42.32-.21.42 2.44 1.6 4.98 1.27 7.73 1.27 2.97-.1 5.4.43 7.42 2.02a37.71 37.71 0 0 0 5.61 7.84c-2.54-1.17-5.4-1.38-8.26-1.17-.21 0-.21.32 0 .32 4.02.21 7.84 1.9 11.33 3.81.85.74 1.8 1.38 2.76 2.01 1.06.96 10.49 5.72 10.17 1.7z"/><path id="ggldr" d="M1373.44 200.57c-10.6-3.07-22.77-10.07-16-32 6.79-21.82 1.49-25-.84-35.9-2.33-10.92 5.61-29.99 12.18-27.97 6.57 2.01 3.18 6.04 3.18 6.04 18.33-.32 24.9 17.8 21.4 36.65-3.5 18.86 9.21 17.48.63 33.47-8.68 15.9-20.55 19.7-20.55 19.7z"/><path id="gglds" d="M1389.33 159.15c-1.8 2.33-4.98 3.07-7.84 3.18-2.43.1-4.66-.53-6.88-.85 0-2.65.1-5.4.2-8.16 1.38 1.06 3.6 1.38 5.2 1.28 3.39-.32 5.19-2.86 6.57-5.72.1-.11-.11-.22-.22-.11-1.69 2.22-3.8 4.34-6.78 4.45-2 .1-3.17-.95-4.76-1.59.1-3.5-.1-6.89-1.06-10.28 5.3 1.38 12.4.64 14.3-5.19.1-.2-.21-.31-.32-.1-2.86 5.08-9.32 5.08-14.4 4.13-1.17-3.18-2.76-6.15-3.71-9.43 2.43 1.7 5.4 3.18 8.47 2.23 2.76-.85 4.24-3.18 4.66-5.94 0-.31-.42-.31-.42-.1a6.3 6.3 0 0 1-5.83 4.98c-2.54.1-4.87-1.28-7.1-2.55 0-.1-.1-.31-.1-.42-.53-2.54-.64-4.98-.53-7.42 2.65.96 5.61 1.6 8.26.43a7.08 7.08 0 0 0 4.35-5.4c0-.11-.22-.22-.22-.11-2.54 4.66-7.62 4.77-12.28 4.03.1-1.91.42-3.92.74-5.83.1-.53-.64-.74-.74-.21-.53 1.7-.85 3.5-1.06 5.3a7.71 7.71 0 0 1-1.8-1.91 9.72 9.72 0 0 1-1.06-3.4c0-.2-.32-.2-.32 0-.53 2.13.63 4.77 2.54 6.05-.1.1-.1.31.1.42.11.1.32.1.43.21-.1 2.12 0 4.24.32 6.25l.32 1.59s-.11-.1-.22-.1c-2.96-1.28-6.35-2.55-6.78-6.15 0-.21-.31-.21-.31 0-.53 3.92 3.6 6.14 6.67 7.2.32.1.53-.1.64-.31l.1.1.1.1c.86 3.4 2.23 6.47 3.4 9.86.1.21.1.53.2.74v.21c0 .1 0 .1.12.21 0-.1-.11-.1-.11-.1-1.27-.74-2.97-.74-4.34-1.17-1.91-.63-3.5-1.8-4.77-3.28-.1-.21-.42 0-.32.21 1.59 2.44 5.72 6.15 9 4.98h.75c.74 3.18.74 6.36.63 9.53-.42.11-.95.22-1.37.22-.85 0-2.02-.43-2.86-.64-1.8-.64-3.82-2.01-4.77-3.81-.1-.1-.21 0-.21.1.63 2.33 1.8 4.03 4.13 5.09 1.38.63 3.5.84 5.08.32-.1 2.96-.2 6.03.1 9h-.1c-.42 0-.53.32-.53.64a8.55 8.55 0 0 1-8.05-3.39c-.21-.22-.42 0-.42.2.74 3.71 5.82 6.36 9.21 3.93.22 1.37.53 2.75 1.06 4.02.11.43.75.21.64-.21a19.5 19.5 0 0 1-.32-3.5c2.65.85 5.93.96 8.37.64 2.97-.42 5.3-1.59 6.78-4.24 0-.1-.32-.42-.53-.2z"/><path id="ggldt" d="M1381.39 315.3c-5.2 6.89-13.56.53-10.8-9.11 1.26-4.34-2.23-2.97-4.99-1.06-2.75 1.9-5.82-7.2-4.55-17.48 1.16-10.27-12.4-14.09-10.6-19.6 1.8-5.5 4.77-8.47 13.25.11 8.47 8.58 15.15 23.73 16.52 32.63 1.38 8.9 2.76 12.4 1.17 14.51z"/><path id="ggldu" d="M1368.25 285.74c-.74-.21-1.6.21-2.33.42-.96.21-1.9.43-2.86.85-.21.1-.21.42.1.42.96.1 1.91 0 2.86-.2.75-.22 1.8-.22 2.33-.86.22-.31.11-.53-.1-.63z"/><path id="ggldv" d="M1380.65 309.79c-4.24 1.7-4.24-7.52-5.09-9.64a9.43 9.43 0 0 0-3.92-4.45c0-1.17 0-2.33-.21-3.6.85.1 1.59.1 2.44.53a7.73 7.73 0 0 1 3.07 2.75c.21.21.53 0 .42-.32-.53-2.22-3.7-4.55-6.25-4.34-.21-.85-.42-1.8-.85-2.65-1.48-3.5-3.07-7.1-4.97-10.49.31-.1.42-.63 0-.84-.22-.11-.43-.11-.53-.22-.11-.2-.22-.31-.32-.53 0-.1-.21 0-.1.11 0 .1.1.21.1.32a9.94 9.94 0 0 0-4.98.2c-.1 0-.1.22 0 .22 1.8-.1 3.6.32 5.4.74.43 1.06.96 2.12 1.38 3.18-1.38 0-2.76.42-3.92 1.27-.21.1 0 .43.21.32a7.23 7.23 0 0 1 3.92-.74h.21c.96 2.22 1.91 4.45 2.65 6.78.32.95.53 1.8.64 2.75-.1.1-.32.1-.43.21l-.1.11c-.64.1-1.27.32-2.02.32-1.27.1-2.43-.1-3.7-.32-.22 0-.32.21-.1.32 1.69 1.06 4.55 1.59 6.56.74.1.95.21 1.9.21 2.86-.21.1-.32.42 0 .64h.1v1.16l-.1.1c-1.7 3.08-4.24 1.91-6.89 1.07-.1 0-.2.1-.1.2 1.38 1.07 3.18 2.02 4.98 1.7.85-.1 1.7-.63 2.22-1.27 0 .85.1 1.7.21 2.54 0 .43.64.43.64 0 0-1.7.1-3.28.1-4.76 1.8 1.27 2.87 2.96 3.5 5.3.53 2.11.53 4.23 1.27 6.24.74 1.91 2.65 3.71 4.56 2.02.1-.32 0-.64-.21-.53z"/><path id="ggldw" d="M1356.7 269.43c5.62 2.64 8.9 8.05 11.87 12.39 4.66 6.67 8.58 11.44 11.55 19.07-1.38-8.9-8.06-24.05-16.53-32.63-8.48-8.58-11.44-5.61-13.24-.1-.21.74-.21 1.58.1 2.32.22-2.75 2.86-2.75 6.25-1.05z"/><path id="ggldx" d="M1364.54 269.85c-1.59-2.02-3.39-5.2-5.93-6.04-1.06-.53-2.33-.74-3.28-.21-1.49.95-1.6 3.5-1.27 4.98 0 .1.2.1.31 0 .32-1.49.22-2.76 1.49-3.82.53-.42 1.06-.53 1.48-.42h.1c.54.1.96.21 1.49.42 2.22 1.17 4.02 4.03 5.4 5.83a23.9 23.9 0 0 1 4.45 7.84c.1.2.32.1.32 0-.32-3.29-2.54-6.04-4.56-8.58z"/><path id="ggldy" d="M1378.63 300.58c-6.88-6.04-1.69-24.05 4.67-32.1 6.46-8.16 6.99-29.03 18.85-26.91 11.87 2.12 6.57 9.64 6.57 9.64s12.6-9.53 17.7-.32c4.97 9.32.3 17.27-4.88 13.35-5.2-3.92-15.9 9.43-20.66 18.54-4.77 9.32-18.33 21.4-22.25 17.8z"/><path id="ggldz" d="M1416.24 250.36c-1.91-.1-3.82.43-5.62.85-2.43.63-4.66.85-7.2.85.32-1.8.32-3.92-.21-5.4-.43-1.28-1.7-2.34-2.97-1.6-.21.11-.1.43.1.43 3.18 0 1.7 5.72 1.49 7.94-.64.43-1.27.96-1.8 1.6-.53.52-1.06 1.16-1.59 1.9.32-1.17-.1-2.54-.53-3.6a7.94 7.94 0 0 0-3.28-3.71c-.11-.1-.22.1-.11.21a8.36 8.36 0 0 1 2.65 3.92c.42 1.27.21 2.65.63 3.92 0 .1.11.1.11.1-1.17 1.6-2.22 3.3-3.28 4.99-.22-2.02-1.17-3.92-3.08-4.35-.31-.1-.53.32-.2.53 2.43 1.27 2.32 3.29 2.32 5.51-.42.74-.74 1.38-1.16 2.01a103.9 103.9 0 0 0-5.62 12.08c-1.7 4.45-3.39 9.11-7.41 12.08-.21.1 0 .53.21.31.53-.31.95-.74 1.38-1.16.1.53.63.85 1.27.95 1.9.43 4.13-.2 6.14-.32.21 0 .21-.2 0-.2-1.06 0-2.12-.11-3.07-.11-.42 0-3.6.1-3.39-.64 0-.1 0-.32-.1-.32a26.81 26.81 0 0 0 3.6-4.76c0 .1 0 .1.1.2 1.49 1.7 4.77.54 6.46-.1 2.02-.74 3.6-1.8 4.35-3.81 0-.1-.1-.21-.21-.1-1.8 3.38-7 3.91-10.28 3.38h-.21c1.59-2.86 2.86-5.93 4.13-8.9 2.44.64 4.66 1.06 7.2.22a19.46 19.46 0 0 0 6.04-3.6c.1-.11 0-.32-.21-.22-1.9.96-3.7 2.12-5.72 2.65-2.33.64-4.45.42-6.78 0 .21-.42.42-.85.53-1.16 1.16-2.23 2.33-4.35 3.6-6.57 2.44 1.06 5.3 1.9 7.95 1.48 3.17-.53 5.72-2.22 8.05-4.24.2-.2-.11-.42-.32-.31-3.82 3.17-10.6 4.13-15.26 2.33a76.48 76.48 0 0 1 2.44-3.82c1.17-1.8 2.44-3.81 3.92-5.5 1.48 1.8 3.81 2.96 6.04 3.49 3.5.95 6.99-.1 10.49-.42.31 0 .31-.43 0-.53-3.18-.32-6.25.42-9.43-.32-2.44-.53-4.24-1.9-6.15-3.18a6.31 6.31 0 0 1 2.23-1.48c6.14.74 12.71-4.98 17.8.85.1.1.42 0 .31-.22-1.06-2.86-3.7-4.02-6.35-4.13z"/><path id="ggldA" d="M1383.93 318.58c2.02-20.02 15.05-27.65 19.28-29.13 4.24-1.48 5.62-5.83 8.69-4.77 3.07 1.06 1.7 4.45 5.08 2.54 3.4-1.9 10.6-6.78 17.27-2.64 3.18 1.69-9.53 13.45-12.29 14.2-2.75.73-13.87-.54-20.97 8.57s-4.13.74-7.63 4.24-4.45 4.66-6.67 6.67c-2.44 1.8-3.18 4.56-2.76.32z"/><path id="ggldB" d="M1430.23 283.73c-4.77.74-9.64 2.86-13.99 4.98a31.48 31.48 0 0 0-5.93 3.81l-.95.64c-.11.1-.22.21-.22.32-.63-.96.64-4.35.85-5.2 0-.2-.32-.42-.42-.2-.43.84-.64 1.58-.96 2.43-.31.85-1.05 1.9-.95 2.86 0 .42.21.74.43 1.06a42.2 42.2 0 0 0-3.71 3.81c-.43.53-.85 1.06-1.27 1.49-.53-.43-.11-3.71 0-4.03.2-1.38.63-2.65 1.27-3.92.1-.1-.1-.21-.21-.1-1.38 2.22-2.55 4.76-2.65 7.41 0 .53.2 1.27.63 1.7a19.67 19.67 0 0 1-3.07 2.86c-4.34.84-1.16-7.31-.53-8.9.1-.21-.21-.21-.32-.1-1.37 2-3.07 5.08-2.75 7.62.1 1.16.85 2.12 1.9 2.54-1.37.95-2.85 1.9-4.23 2.86-.32.21-.53.43-.85.64-1.8-1.27-1.16-5.4-.53-7.2.1-.22-.21-.32-.32-.11-1.06 2.01-1.9 4.34-1.16 6.67.21.53.53 1.17.95 1.48-2.22 1.8-4.24 3.92-5.08 6.78-.1.22.31.43.42.22 1.38-2.86 3.6-4.88 6.04-6.57.21 0 .32-.1.53-.32l.1-.1c.75-.54 1.49-.96 2.33-1.49 1.38-.85 2.65-1.8 3.92-2.65h.11a43.21 43.21 0 0 0 5.08-4.56c4.35-3.38 9.22-6.24 14.94-3.8.21.1.32-.22.1-.32-3.7-1.8-7.73-1.49-11.22.2a42.97 42.97 0 0 1 4.87-3.8 31.2 31.2 0 0 1 5.3-1.8c3.07-.75 6.04-.64 9.1-.64.33 0 .33-.43.11-.53a29.63 29.63 0 0 0-9.64.21c4.14-1.9 8.59-3.07 12.72-5.19.2-.42-.21-1.17-.74-1.06z"/><path id="ggldC" d="M1365.71 344.53c-1.06-11.87-3.7-8.48 3.28-16.53 7.1-8.05-3.7-15.25-9.21-17.8-5.51-2.43-23.94-26.26-33.58-5.18-4.35-6.57-20.98-9.86-16.1 7.94 4.87 17.8 9.21 6.68 12.07 13.03 2.86 6.36 15.04 5.4 19.18 9.75 4.13 4.34 5.08 12.18 12.6 9.1 7.63-3.06 11.76-.31 11.76-.31z"/><path id="ggldD" d="M1364.02 325.68c-3.18-.42-6.89-.53-9.11 2.33a4.9 4.9 0 0 0-.96 3.92 133.94 133.94 0 0 0-6.77-6.67c.1-1.17-.22-2.12-.32-3.29-.21-1.9.74-3.6 2.43-4.66 2.65-1.8 5.94-1.7 9-1.06.33.1.43-.32.11-.42-4.23-1.59-11.86-.74-13.03 4.66-.1.64 0 1.06 0 1.7v1.37a89.53 89.53 0 0 0-7.94-6.25c-.42-1.8-.95-3.39 0-5.5a7.23 7.23 0 0 1 6.36-4.24c.31 0 .31-.53 0-.53-2.97-.11-5.94 1.16-7.42 3.92a8.74 8.74 0 0 0-.85 4.97 81.65 81.65 0 0 0-7.62-4.66c-.22-.1-.43.22-.22.32 2.86 1.7 5.62 3.6 8.16 5.51 0 .1.1.21.21.32-6.04-1.27-12.18-2.44-18.22-3.71-.21-.1-.32.32-.1.42 6.35 1.38 12.7 3.08 19.06 4.45.11.1.11.21.22.32.31.21.63.1.74-.21a87.31 87.31 0 0 1 6.56 5.93c-.2 0-.52 0-.95.1-2.01.11-3.92 0-5.93 0-4.34 0-8.58 0-12.92.11-.22 0-.22.32 0 .32 3.5.21 6.88.32 10.38.42 3.6.11 7.3-.1 10.8.53l.21.22c2.65 2.64 5.2 5.3 7.74 7.94.2.21.31.42.53.53-2.44.42-5.51-.74-7.74-1.16-3.17-.64-6.25-1.17-9.42-1.8-.11 0-.22.2-.11.2 4.03 1.07 7.94 2.13 11.97 3.18 2.01.53 4.24 1.28 6.25.75a69.4 69.4 0 0 0 6.67 6.99c.53.42 1.38-.1.96-.74a64.7 64.7 0 0 0-6.04-7.1c.1-.21.21-.64-.1-.85-2.55-2.33-2.44-5.5.73-7.1 2.02-.95 4.35-.95 6.47-.95.53-.1.42-.53.2-.53z"/><path id="ggldE" d="M1369.1 217.2c-10.92 1.8-15.26-10.49-16.64-17.27-1.37-6.78-9.42-10.27-5.3-24.05 4.14-13.77 8.9-15.89 19.18-11.44 10.28 4.35 5.09-9.95 11.65-9.32 6.57.64 21.2 20.45 18.54 28.6-2.75 8.16-10.27 18.22-11.01 23.94-.85 5.72-1.28 20.03-16.42 9.54z"/><path id="ggldF" d="M1383.61 179.81c-1.48.53-2.65 1.7-3.81 2.65-1.9 1.59-4.13 2.44-6.46 3.18 0-.32.1-.64.1-.96.11-1.48.11-2.96-.1-4.34 1.8-.21 3.07-2.65 3.7-4.03 1.6-3.39 3.4-9.53 8.48-7.52.21.1.21-.2.1-.31-2.75-1.8-5.82-.43-7.62 1.9-1.06 1.38-1.7 3.07-2.33 4.66a9.2 9.2 0 0 1-1.7 2.76c-.31.32-.63.53-.95.74a12.02 12.02 0 0 0-2.44-4.77c-.31-.42-1.06.1-.74.64a14.6 14.6 0 0 1 2.12 5.61c-.85-.1-1.7-.1-2.54-.32-1.7-.42-2.54-1.8-3.6-3.07a12.56 12.56 0 0 0-3.71-3.39c-2.86-1.48-6.15-1.16-8.37 1.06-.21.21.1.43.32.32 4.66-3.92 8.68 1.06 11.44 4.34 1.8 2.23 4.02 2.86 6.67 2.23.1 2.12-.21 4.23-.85 6.46-1.69.32-3.28.53-5.08-.1-2.22-.75-3.7-2.87-5.93-3.5-2.86-.85-5.51.85-6.36 3.6-.1.21.32.42.43.21 1.16-2.12 4.02-3.18 6.14-2.01 1.7.85 2.75 2.33 4.66 2.96 1.7.64 3.81.85 5.72.43-.85 2.33-2.54 5.61-1.38 8.05-2.64.53-4.76 0-7.52-.42-2.01-.32-3.92-.43-5.61.74-.1 0 0 .2.1.1 3.92-1.06 9.54 3.08 13.35 1.06-.85.74-1.59 1.49-2.22 2.33-1.06 1.38-1.49 3.29-3.07 4.03-2.02.95-3.18-.95-5.09-.95-.95 0-1.48.2-1.9 1.05-.11.11.1.32.2.22 2.55-1.6 5.62 3.81 8.37 1.48.96-.85 1.17-2.65 1.7-3.7a14 14 0 0 1 3.18-3.93 12.98 12.98 0 0 1 3.18 7.84c0 .43.2.64.63.74a5.9 5.9 0 0 0 7.31-3.18c.1-.2-.21-.42-.32-.31a6.05 6.05 0 0 1-4.66 2.12c-1.8 0-1.59-1.17-2.22-2.55a14.52 14.52 0 0 0-3.5-5.08c.1-.1.21-.21.32-.21l.1-.1c1.91.84 4.24 1.05 6.04.84 2.86-.32 5.51-1.38 7.63-3.29.21-.2-.1-.53-.32-.42a13.25 13.25 0 0 1-7.73 2.01c-2.44-.1-4.34-1.16-6.57-1.9.1-1.38.53-2.76.95-4.03 4.35 1.27 9.64-4.02 13.35-.42.32.31.74-.1.53-.53-1.27-1.6-3.07-2.02-5.08-1.9-2.97.2-5.4 1.58-8.37 1.47.21-.74.53-1.59.63-2.33l.96-.63c.32-.32 0-.74-.43-.64-.1 0-.2 0-.2.1v-.1c2.11-.21 4.23-.95 6.03-2.12.95-.63 1.8-1.27 2.65-2 1.16-1.07 5.5-3.82 5.5 0 0 .2.32.3.43.1.74-2.12-2.22-3.6-4.24-2.97z"/><path id="ggldG" d="M1372.38 286.9c-6.14-4.97-11.86-28.28-7.3-38.23 4.55-9.96 1.8-20.45-.43-28.5-2.12-7.95 2.12-35.17 8.05-26.17 5.83 9.11 6.57 20.66 10.6 26.6 4.02 5.82 15.25 19.27 11.12 33.79-5.09 18.22-14.52 36.65-22.04 32.52z"/><path id="ggldH" d="M1389.12 243.8c-.1-.32-.42-.11-.42.1.84 5.72-3.92 9.64-6.68 13.98-1.16 1.8-1.59 3.82-2.01 5.83.74-5.3.42-10.6-.43-15.9.11-.41.22-.94.32-1.37.64-2.33 1.7-4.55 2.65-6.88 1.48-3.6 1.7-7 .64-10.7 0-.21-.32-.1-.32.1 1.16 5.3-1.9 9-3.5 13.67-.2.53-.31 1.06-.53 1.7-1.06-4.77-2.43-9.33-3.81-13.99a8.14 8.14 0 0 1 1.8-3.39c.64-.74 1.38-1.38 1.7-2.33.63-1.48.63-3.18-.53-4.34-.22-.22-.64.1-.43.31 1.6 2.86-1.9 4.77-3.18 6.89 0 .1-.1.21-.1.32-.74-2.54-1.48-5.2-2.12-7.74v-.2c-.32-1.6-.42-2.76.85-4.03.53-.53 1.27-.85 1.59-1.6.74-1.47-.22-3.8-.75-5.29-.1-.21-.42-.21-.42.1.1 1.38 1.06 3.82.1 4.99-.63.74-1.58 1.06-2.22 1.9 0 .1-.1.1-.1.21a52.47 52.47 0 0 1-1.17-14.08c0-.43-.74-.53-.74-.11-.64 4.45-.53 8.8 0 13.03-1.9-1.7-3.4-3.6-4.13-6.25 0-.21-.32-.1-.32.1a12.48 12.48 0 0 0 4.56 7.63c.63 3.71 1.48 7.42 2.54 11.13-.53-.75-1.27-1.38-1.9-2.02-1.81-1.8-3.61-3.6-3.72-6.25 0-.42-.63-.42-.63 0 0 2.02.74 3.6 2.01 5.09.74.85 1.59 1.7 2.33 2.54.85.95 1.38 2.01 2.33 2.86.1.1.32.1.43.1 1.48 4.88 3.07 9.75 4.23 14.63-2.43-3.6-5.82-5.51-7.1-9.96-.1-.21-.42-.1-.31.1.74 3.4 2.33 5.72 4.66 8.27 2.01 2.22 3.07 4.66 3.92 7.3 0 1.38.21 2.65.42 3.93 0 .2.21.2.32.1.63 4.77.74 9.64-.32 14.2-.74-7.1-9.32-11.87-9-19.39 0-.21-.32-.21-.32 0-1.06 8.48 7.84 13.14 8.8 20.98-.11.31-.33.52-.54.84 0 0 0 .1.1 0 .11-.1.22-.2.22-.32-.95 2.87-2.44 5.3-4.03 7.95-1.37 2.33-2.86 4.87-1.8 7.63.1.32.53.2.53-.1-1.06-4.46 2.44-7.85 4.24-11.45.53-1.06.95-2.22 1.38-3.39v.21c0 .1.21.21.32 0 .1-.63.2-1.16.2-1.8v-.1c.33-.53.75-.96.96-1.49.53-1.16.53-2.54.85-3.81.63-2.86 2.65-5.2 4.34-7.52 2.76-3.82 5.3-8.05 4.24-12.93z"/><path id="ggldI" d="M1367.4 259.79c0-.1-.2-.21-.2-.1-1.8 7.4 8.26 10.9 6.46 18.21-.1.22.32.43.42.22 3.92-7.2-8.05-11.44-6.67-18.33z"/><path id="ggldJ" d="M1387.11 264.87c-1.48 3.39-3.28 7.1-6.46 9.21-2.23 1.6-5.2 2.76-6.57 5.3-.1.21.21.42.32.32 2.44-2.65 6.14-3.29 8.69-5.83 2.33-2.43 3.28-5.61 4.34-8.79.1-.21-.21-.42-.32-.21z"/><path id="ggldK" d="M1418.78 196.76h-.32v.1h.32c.1.11.1-.1 0-.1z"/><path id="ggldL" d="M1389.97 152.16v.32h.1c0-.1 0-.21-.1-.32.1 0 0 0 0 0z"/><path id="ggldM" d="M898.01 357.46c7-12.4 91.95-13.03 94.7-1.06 2.87 11.97-22.14 14.72-22.14 14.72l-56.14 2.55-16.42-8.27v-7.94z"/><path id="ggldN" d="M908.18 389.87c-2-13.98-1.05-18.75-1.05-18.75s82.62-13.66 83.37 0c.63 13.67-3.5 37.5-3.5 37.5l-18.33 15.26-23.4-4.87-20.35-10.39z"/><path id="ggldO" d="M865.15 253.86a1.47 1.47 0 0 1-1.38 1.06h-.21a1.7 1.7 0 0 1-1.49-.85c-.42-.74-.53-1.59-.74-2.54-.21-.85-.32-1.6-.53-2.44-.1-.42.42-.74.74-.42.85.63 1.38 1.59 2.12 2.22.85.96 1.91 1.49 1.49 2.97zm-5.62 37.82c-.11.1-.22.1-.32.2-.32.22-.96.22-1.27 0a5.86 5.86 0 0 0-2.65-.73c-.32 0-.32-.64 0-.64.95-.1 1.8-.21 2.65-.74.31-.21.95-.21 1.27 0l.32.21c.63.43.63 1.17 0 1.7zm-4.24 18.11c-.64.21-1.27.1-2.01.21-.64.11-1.28.43-1.91.64-.21.1-.32-.21-.21-.32.53-.53 1.16-1.06 1.48-1.7.32-.63.42-1.05.95-1.69a1.6 1.6 0 0 1 2.02-.21c.63.32.74.74.84 1.48.11.74-.53 1.38-1.16 1.6zm38.13-53.81c-5.72-9.11.11-18.33-6.35-36.55-4.87-13.45-33.26-12.71-49.9 8.16-16.52 20.97-13.34 18.85 1.7 10.27 15.04-8.58 25.85 14.1 17.8 7.52-8.06-6.56-26.28-1.7-33.16 10.7-7 12.4-2.97 30.83-.32 23.63 2.65-7.2 4.56-13.88 15.78-18.54 7.74-3.29 20.03 3.92 22.14 6.46.11-.1.22-.1.32-.1.74.52 1.06 1.37 1.7 1.9.63.64 1.27.85 1.16 1.9-.1.64-.63 1.07-1.27.75-.74-.42-.85-.95-.95-1.7-.1-.74-.53-1.37-.85-2-.42.1-1.9-.22-4.66-1.6-14.4-6.78-24.9 16.42-30.3 22.88-5.4 6.47-2.96 40.37 2.86 18.44 5.83-21.93 32.95-17.38 22.04-15.36-10.91 1.9-17.9 15.36-18.86 24.47-.53 4.98 6.04 29.76 6.67 8.9.64-20.87 14.84-17.59 8.27-13.14-6.57 4.45-5.09 13.67-5.09 22.14 0 6.14 7.84 11.97 6.89 3.6-.96-8.26 5.82-11.97 3.28-4.55-2.54 7.41-4.13 12.07-.21 16.2 4.03 4.14 6.67 9.33 13.03 9.75 6.36.42-4.24-7.41-4.98-17.58-.85-10.28 7-43.44 10.91-58.16 3.92-14.83 5.09-15.79 21.5-22.99 0 .05 6.53 3.64.85-5.4z"/><path id="ggldP" d="M838.87 237.97c7.52-4.24 13.88-.85 17.48 2.97 9.22-6.47 22.14-11.76 33.37-10.92a54.16 54.16 0 0 0-2.75-10.59c-4.88-13.45-33.27-12.71-49.9 8.16-16.42 20.97-13.24 18.96 1.8 10.38z"/><path id="ggldQ" d="M823.19 279.71c2.43-6.57 4.23-12.71 13.13-17.37 4.66-7.31 10.28-13.88 16.63-18.96-9-3.08-23.4 1.9-29.45 12.7-6.88 12.4-2.96 30.83-.31 23.63z"/><path id="ggldR" d="M968.22 395.6c0-25.85-4.88-41.74-9.86-50.43a368 368 0 0 0-19.28-29.87 548.87 548.87 0 0 0-22.35-29.34c-6.88-8.58-13.77-17.38-21.18-25.53.1-6.15-.64-12.3-2.97-18.01 0-.1-.1-.1-.1-.21.1-.11.1-.32 0-.43-4.99-4.66-9.86 5.3-11.55 8.48-2.86 5.3-7.42 14.4-4.35 20.44.22.43.74.21.85-.1.32.1.64.1.85-.22 4.34-4.76 10.38-6.03 16.42-7.2.21 0 .42-.1.53-.32 6.14 7.95 12.71 15.57 18.96 23.41 7.2 9.11 14.3 18.33 21.08 27.76a446.6 446.6 0 0 1 20.02 30.61c5.51 9.43 8.69 17.7 9.85 51.38 0 .74 3.08.42 3.08-.42z"/><path id="ggldS" d="M945.58 366.25c-23.84-54.77-62.4-62.5-78.18-50.53-15.9 11.87-27.12 29.56-27.12 29.56 22.67-24.8 29.77-33.27 45.66-32.52 9.64.42 28.5 3.28 52.75 43.75 2.23 3.7 2.33 9 2.12 10.8-.21 1.38 3.92-2.44 4.77-1.06z"/><path id="ggldT" d="M864.43 331.92c-.53.43-1.16.96-1.59 1.38-.63.64-1.7.85-2.43.32-.64-.43-1.06-.95-1.06-1.8.1-1.17.85-1.9 2.01-2.02 1.17-.1 2.12.11 3.07.75.53.31.43 1.06 0 1.37zm-19.17.63c-.21-.1-.21-.53 0-.53.74-.31 1.48-.74 2.12-1.16.74-.53 1.27-1.06 2.12-1.16.84-.1 1.48.42 1.27 1.27-.43 2.43-3.71 2.43-5.51 1.58zM839 338.6c-1.38.2-2.65.53-4.03.74-.31 0-.53-.32-.31-.64a18.4 18.4 0 0 1 2.64-3.07c2.12-2.22 4.45 2.54 1.7 2.97zm-8.48 8.04c-.84.85-1.9.85-2.86 1.38-.95.53-1.8 1.06-2.86 1.48-.42.1-.84-.32-.74-.74a8.38 8.38 0 0 1 2.01-2.75c.85-.85 1.6-1.9 2.76-2.12 1.7-.31 2.97 1.48 1.7 2.75zm-7.52 18.33c-.95 1.05-2.33-.32-1.9-1.48.42-1.06.53-2.01 1.48-2.65.63-.42 1.59 0 1.8.74.53 1.38-.42 2.43-1.38 3.39zm77.65-45.12c-16.52-6.46-35.17 4.55-32.2 1.37 7.73-8.15 24.9-4.87 22.35-6.56-6.57-3.92-12.92-1.8-22.35 1.7 2.54-3.08 1.38-4.78 0-7.53s-8.58-4.56-6.36-1.48c2.23 3.07.85 11.86-.84 8.05-1.7-3.71-2.87-7.1-6.9-11.34-4.02-4.23-27.32-7.2-21.18-1.48 1.6 1.38 9 4.45 13.14 10.17 4.13 5.83 12.18 7.2 7.52 8.26-4.66 1.06-4.24-.21-9.22-4.34-5.08-4.13-10.7-11.12-20.02-10.6-9.32.54-16.84 13.04-12.82 10.6 4.14-2.44 8.05-3.4 21.61 4.98 13.56 8.26 14.2 2.75 14.94 5.3.74 2.33-4.98 4.66-12.82.95s-21.18-6.46-29.23-3.07c-7.95 3.39-14.2 10.9-9.22 10.7 4.98-.22 5.61-6.57 19.07-2.76 13.56 3.81 21.6-.32 16.63 2.76-4.98 3.07-35.7.42-37.5 4.44-1.9 4.03-11.44 8.27-3.7 8.8 24.04 2.12 31.03-6.25 30.18-2.02-.85 4.35-26.27 8.16-31.57 5.62-5.3-2.54-13.24 10.27-3.92 11.44 9.43 1.06 34-6.89 30.2-1.59-3.92 5.4-32.1.64-34.01 6.36-1.9 5.72-3.92 14.62 2.12 16 6.04 1.37 20.55-13.04 20.55-8.59-.1 4.35-13.77 8.16-19.28 11.87-5.4 3.7 8.47 12.5 12.82 9.85 4.34-2.65 15.36-14.4 18.11-21.72 2.76-7.3 3.29-11.65 3.6-2.75.22 8.9-18.75 22.67-16.3 24.9 2.43 2.22 13.34 6.67 21.6-11.55 8.37-18.23 10.06-18.97 10.8-25.43.11-.63.11-1.16.22-1.59-.1-.1-.21-.21-.21-.32-.22-1.27-.32-2.64-1.06-3.7-.85-1.38.31-3.08 1.8-3.08 1.48 0 2.65 1.8 1.8 3.08-.64.95-.74 2-.95 2.96l.74 3.71c1.48 7.84-6.68 13.67-8.16 22.03-1.38 8.27-8.9 12.19-6.25 13.46 2.65 1.27 12.08-.74 15.78-4.98 3.71-4.34 10.7-25.85 6.25-33.69-2.11-3.6-3.07-6.14-3.28-7.41-.21-.1-.32-.21-.53-.32l-.53-.53h-.1a4.15 4.15 0 0 1-1.06-.85c-1.8-1.59 1.06-4.34 2.54-2.54.32.42.74.74.85 1.27 0 .53.1.64.1.21.1.21.32.43.43.74.31.64.1 1.28-.32 1.7l.63.63c2.76 3.29 6.36 12.82 6.36 21.4.1 8.58-7.52 18.01-2.65 16 4.87-2.01 18.12-2.44 20.13-15.89 1.7-11.55-6.78-23.2-12.4-27.23-.95-.1-1.9-.42-2.75-.63-1.59-.42-3.07-1.06-4.03-2.44a1.82 1.82 0 0 1 0-1.8c.43-.63 1.06-1.06 2.02-.85.63.22 1.06.64 1.7 1.06a6.4 6.4 0 0 1 2 0c4.45.32 11.87 12.08 16.42 20.87 4.56 8.69.64 9.85 4.56 11.02 3.92 1.16 10.49-7.52 10.7-14.2.1-6.78-10.49-14.83-19.5-17.58-9-2.75-13.87-3.6 0-3.6 13.88-.1 17.91 14.72 26.17 13.56 8.16-1.17 17.06-10.49 12.3-14.3-4.67-3.82-26.7-9.96-34.23-8.58-7.52 1.37-8.68-1.06-.95-1.7 7.1-.53 12.4-2.33 19.07-1.59 8.58.95 20.97 9.32 23.2 7.2 1.9-2.64 3.92-6.35-12.6-12.81z"/><path id="ggldU" d="M845.26 332.55c-.22-.1-.22-.53 0-.53.74-.31 1.48-.74 2.12-1.16.74-.53 1.27-1.06 2.12-1.16.85-.1 1.49.42 1.27 1.27-.42 2.43-3.71 2.43-5.51 1.58zm24.68-20.33c-9 6.57-18.22 12.6-26.59 20.34-1.16 1.06-2.33 2.12-3.6 3.18.74.95.74 2.54-.85 2.86-1.05.2-2.11.42-3.28.63-1.9 1.6-3.7 3.18-5.61 4.88.84.53 1.27 1.7.42 2.54-.85.85-1.9.85-2.86 1.38-.95.53-1.8 1.06-2.86 1.48h-.1c-2.97 3.28-5.52 6.78-7.21 10.7 6.14-.32 13.24-7 17.7-9.85 6.35-4.03 12.39-8.27 18.21-13.03 2.01-1.6 3.92-3.29 5.93-4.98v-.43c.11-1.16.85-1.9 2.02-2h.95c3.7-3.08 7.3-6.26 10.91-9.44-3.81 1.17-5.83 2.02-4.66.85 2.44-2.54 5.72-3.92 9.11-4.77l3.5-3.17c-.11-.22-.22-.43-.43-.64-3.6.53-7.52 1.9-12.29 3.7 1.49-1.8 1.8-2.96 1.6-4.23z"/><path id="ggldV" d="M834.24 303.22c1.8-1.27 3.6-2.55 5.5-3.71-5.5-.53-9.63.21-6.56 2.97.32.2.63.53 1.06.74z"/><path id="ggldW" d="M797.06 335.42c3.81-.1 5.08-3.92 11.54-3.92 1.7-2.86 3.6-5.61 5.62-8.26-2.97.1-5.72.53-7.95 1.48-7.94 3.4-14.2 10.91-9.21 10.7z"/><path id="ggldX" d="M811.78 316.67c2.33-1.48 4.77-2.33 8.9-1.16a89.85 89.85 0 0 1 9.22-8.8c-1.7-.42-3.4-.63-5.4-.52-9.22.42-16.85 12.92-12.72 10.48z"/><path id="ggldY" d="M881.7 349.51a56.4 56.4 0 0 1-10.17 12.18c.1.1.1.32.21.43 4.56 8.68.64 9.85 4.56 11.01 3.92 1.17 10.48-7.52 10.7-14.2 0-3.06-2.12-6.45-5.3-9.42z"/><path id="ggldZ" d="M851.19 375.9c-1.16 7.73-6.78 15.04-2.44 13.24 4.88-2.02 18.12-2.44 20.13-15.9.43-2.96.21-5.82-.42-8.68a86.8 86.8 0 0 1-17.27 11.33z"/><path id="ggldaa" d="M830.96 382.57c-.1.53-.32 1.06-.32 1.59-1.38 8.26-8.9 12.18-6.25 13.45 2.54 1.27 12.08-.74 15.78-4.98 1.7-2.01 4.24-7.84 5.83-14.3a77.85 77.85 0 0 1-15.04 4.24z"/><path id="ggldab" d="M900.66 319.85c-3.5-1.37-7.1-1.9-10.49-2.01.74 2.12.95 4.45.64 7.42 8.58 1.37 20.12 9.1 22.24 7.1 2.12-2.34 4.13-6.05-12.4-12.5z"/><path id="ggldac" d="M889.64 330.66c0 .1 0 .21-.1.32a82.15 82.15 0 0 1-5.83 15.04c3.28 3.07 6.14 5.83 9.75 5.3 8.15-1.17 17.05-10.49 12.28-14.3-2.22-2.02-9-4.56-16.1-6.36z"/><path id="ggldad" d="M803 375.36a20.74 20.74 0 0 1-4.56-10.17c-7.63.21-15.05.42-16 3.28-1.9 5.72-3.92 14.62 2.12 16 4.66 1.06 14.2-7.2 18.43-9.11z"/><path id="ggldae" d="M827.25 382.99c-2.65.21-5.2.21-7.84.1-1.27-.1-2.33-.2-3.5-.42-5.4 7-13.56 13.88-11.97 15.36 2.44 2.23 13.35 6.67 21.61-11.55.64-1.27 1.17-2.43 1.7-3.5z"/><path id="ggldaf" d="M786.25 363.7c2.97.32 7.31-.2 11.87-.95-.21-3.07 0-6.36.85-9.75-3.92.22-7.31 0-8.8-.74-5.3-2.54-13.24 10.28-3.92 11.44z"/><path id="ggldag" d="M791.54 348.66c3.18.32 6.04.43 8.58.32a98.39 98.39 0 0 1 4.98-11.44c-5.19.32-9.21.95-9.85 2.33-1.8 4.03-11.44 8.26-3.7 8.8z"/><path id="ggldah" d="M813.37 381.93a21.64 21.64 0 0 1-8.68-4.87c-2.33 3.81-13.88 7.2-18.86 10.6-5.4 3.7 8.48 12.5 12.82 9.85 3.28-1.91 10.27-9 14.72-15.58z"/><path id="ggldai" d="M956.49 233.52c0-.32.1-.64.1-.96a400.61 400.61 0 0 0 3.92-19.6c2.65-14.72 5.2-29.76 5.83-44.7.1-3.81-.21-8.05-3.92-10.06-3.5-2.01-7.94-.53-10.8 2.01-3.4 3.07-7.2 9.22-7.2 13.98 0 2.65 1.47 5.62 3.91 6.36.95 2.97 2.44 5.93 3.4 8.8 1.16 3.49 2 7.2 3.27 10.7.11 1.26.32 2.64.32 3.91.53 11.12-1.16 22.46-2.22 33.48-.21 2.65-.53 5.19-.85 7.84-.85 4.02-1.59 8.15-2.44 12.18-.1.42.53.42.64.1.32-1.27.64-2.54 1.06-3.8-1.8 16.83-12.71 96.5-13.98 113.34-.11.85 1.27 1.17 1.37.21 3.29-23.52 14.73-110.17 17.59-133.8z"/><path id="ggldaj" d="M996.63 284.9c-12.92-7.21-31.03 7.09-36.12 18.85-3.7 8.69-4.77 18.64-6.35 27.86-1.8 9.96-3.71 27.33-.75 37.18.22.74 1.17.53 1.27-.21 1.7-15.89 2.02-37.82 6.15-53.5 2.75-10.38 7.1-20.02 19.39-20.44 5.72-.21 9.53 2.54 15.14.32 4.24-1.49 5.83-7.53 1.27-10.07z"/><path id="ggldak" d="M985.4 278c-10.7 3.19-12.7-15.88-27.22 2.23-14.51 18.12-7.2 34 13.56 41.63 20.87 7.53 43.64 17.17 46.5 30.3 2.87 13.14 10.7-1.7 11.76-11.12 1.06-9.43 1.06-58.9-20.23-68.75-21.3-9.86-24.36 5.72-24.36 5.72z"/><path id="ggldal" d="M978.63 312.65a45.13 45.13 0 0 1-.85-4.34c-1.7-11.13-.21-23.84-8.69-32.63a23.38 23.38 0 0 0-3.18-2.65c-.42.21-.95.53-1.37.85-5.4 11.23.84 26.8 9.32 34.74a34.26 34.26 0 0 0 4.77 4.03z"/><path id="ggldam" d="M898.01 357.46c19.5 17.37 94.7-1.06 94.7-1.06 4.46 10.17 4.99 26.17-8.26 25.85-13.24-.21-78.81 6.57-86.12-4.56-7.42-11.12-.32-20.23-.32-20.23z"/><path id="ggldan" d="M908.18 389.87c3.18 17.16 8.9 44.28 21.82 48.62 12.93 4.45 33.27 5.83 42.48 4.03 9.22-1.8 14.51-36.02 14.51-36.02-14.72 4.87-78.81-16.63-78.81-16.63z"/><path id="ggldao" d="M961.78 180.13c-1.16.74-2.75 1.38-3.5 2.65a2.13 2.13 0 0 1-3.49.2c-.85-1.05-.42-3.06 1.06-3.28 1.9-.2 3.7-.74 5.5-.95.86-.1 1.07 1.06.43 1.38zm-2.22 13.35a6.5 6.5 0 0 1-2.44 1.17c-.63.1-2.01 0-2.54.42-1.27.96-3.07-.31-3.07-1.7 0-1.38 1.8-2.65 3.07-1.7.42.32 1.59.22 2.12.22.85 0 1.59.1 2.43.21.96-.1 1.06.96.43 1.38zm-5.72-24.26c.63-.53 1.16-.64 1.8-.96 1.27-.63 3.07.75 2.12 2.12a5.15 5.15 0 0 1-1.8 1.6c-.85.31-1.7.31-2.23-.43s-.63-1.8.1-2.33zm-19.7 4.66c-.11 0-.22 0-.32.1a1.9 1.9 0 0 1-1.91-.53c-1.06-1.05-1.9-2.54-3.07-3.5-.43-.3 0-1.05.53-.94 1.48.42 2.96.63 4.45 1.16.84.32 1.27.95 1.48 1.9v.22c.1.74-.53 1.38-1.17 1.59zm-3.5 25.1c-2.97 1.38-6.04 2.65-9.22 1.7a.66.66 0 0 1 0-1.27c2.12-.74 4.88-1.48 6.15-3.5a2.43 2.43 0 0 1 2.54-1.06c.1 0 .21 0 .21.1.64.22 1.17.65 1.27 1.28v.21c.21.85-.1 2.12-.95 2.54zm-10.38-19.6c-.43-.2-.43-.73 0-.95 2.64-.95 5.4-2.22 8.25-.84 2.75 1.27.74 5.72-2.01 4.76-1.16-.42-2.12-1.16-3.17-1.7-1.06-.42-2.02-.84-3.07-1.26zm81.88-24.46c-4.23-3.71-8.9-7-13.98-9.43-6.78-3.29-17.05-6.25-23.73-1.27-2.33 1.7-4.24 3.81-6.57 5.4-2.33 1.59-3.81 2.44-7.2 1.7-1.38-.22-3.5-1.38-3.81-2.65-1.06-4.24-2.86-6.36-5.4-8.58a18.93 18.93 0 0 0-11.24-4.56c-6.46-.64-13.24.95-19.17 3.39-5.5 2.33 4.45-.53 11.44 4.24 7 4.66 11.34 6.57 13.56 13.45-10.91-7.84-26.59-15.68-32.3-13.45-5.84 2.22-12.3 18.22-17.8 23.73-5.51 5.5 4.23-.96 11.12-4.88 6.78-3.92 24.57-1.7 28.6 4.88-14.73-2.44-21.93-5.09-32.95 4.98-11.01 10.06-10.8 8.36-11.33 11.01-.53 2.55.95 15.9 2.65 14.41 1.8-1.38 23.1-23.94 33.05-18.22-13.14 5.83-31.25 19.39-31.25 26.38-.1 6.99 3.39 12.5 4.77 12.7 1.27.22 11.75-18.21 24.15-14.61 3.92 1.27-2.65 1.9-4.77 1.9-2.12 0-16.2 15.58-15.78 20.98.53 5.4 9.43 17.8 11.23 16.95 1.9-.85 11.23-19.17 15.25-21.93 4.03-2.75 7.84-9.53 8.69-11.65.84-2.12 3.5-.42 1.7 2.65-1.91 2.96-19.08 29.55-18.86 36.86.2 7.42 11.86 10.5 16.31 10.6 4.45.1 14.62-3.18 15.47-6.15.84-2.96 3.28-37.18 2.11-41.52-1.16-4.35 1.28-4.56 2.65-.22 1.38 4.24 2.65 33.48 2.33 37.72-.31 4.23 16-8.37 17.48-11.55 1.49-3.18-7.41-25.53-11.23-31.46-3.81-5.93 2.44-.74 4.45 4.13 2.02 4.77 8.69 7.2 13.14 18.96 4.55 11.76 16.31-6.88 17.05-11.02.75-4.23-24.15-21.82-27.22-22.45-3.07-.74 10.7-1.27 16.42 1.8 5.83 2.96 9.96 14.51 11.44 16.52 1.48 2.02 11.44-9.74 9.75-16.84-1.7-7-24.58-18.22-32.1-19.6-7.52-1.27-.1-1.59 4.55-1.59 4.66 0 26.06 5.09 29.77 13.46 3.7 8.26 11.65-14.62 2.01-17.48-9.64-2.86-18.11-14.52-41.95-3.6-5.82 2.64.85-3.92 5.3-5.94 4.45-2 22.25-10.27 37.6 2.86 15.37 13.03-1.9-7.94-5.4-11.01z"/><path id="ggldap" d="M912.52 140.19a29.95 29.95 0 0 1 4.77-3.39 38.17 38.17 0 0 0-6.15 2.12c-2.96 1.27-1.59 1.06 1.38 1.27z"/><path id="ggldaq" d="M897.06 162c.64-.42 1.49-.63 2.33-.95 2.33-6.67 5.72-12.92 10.07-17.8-2.33-.52-4.35-.52-5.72 0-5.83 2.23-12.3 18.23-17.8 23.74-5.4 5.3 4.34-1.17 11.12-4.98z"/><path id="ggldar" d="M993.35 210.32c-.64.74-1.27 1.38-1.91 2.12.42.95.85 1.7 1.17 2.01 1.27 1.7 8.36-6.25 9.74-13.03a142.87 142.87 0 0 1-9 8.9z"/><path id="ggldas" d="M897.38 168.26a32.11 32.11 0 0 0-4.56 3.6c-11.01 10.07-10.8 8.37-11.33 11.02-.53 2.54.95 15.89 2.65 14.4.84-.63 5.61-5.6 11.54-10.27-.42-5.72.11-12.29 1.7-18.75z"/><path id="ggldat" d="M973.97 227.47l.95 2.23c4.56 11.76 16.32-6.89 17.06-11.02.1-.85-.85-2.33-2.44-4.13-4.66 4.66-9.96 9-15.57 12.92z"/><path id="ggldau" d="M902.46 212.22c-4.24 4.87-8.47 11.12-8.26 14.09.53 5.4 9.43 17.8 11.23 16.95 1.06-.53 4.76-7 8.37-12.82-4.56-4.87-8.37-11.44-11.34-18.22z"/><path id="ggldav" d="M900.66 207.67a103.74 103.74 0 0 1-4.35-15.57c-6.03 4.87-10.38 9.85-10.38 13.35-.1 6.99 3.4 12.5 4.77 12.71.63 0 4.45-6.04 9.96-10.49z"/><path id="ggldaw" d="M928.41 238.8a23.48 23.48 0 0 1-7.1-2.43 34.31 34.31 0 0 1-3.39-1.8c-3.28 6.14-5.82 11.86-5.72 14.72.22 7.42 11.87 10.5 16.32 10.6 4.45.1 14.62-3.18 15.46-6.15.32-1.16.96-7.2 1.49-14.3-5.72.85-11.44.74-17.06-.63z"/><path id="ggldax" d="M950.77 238.29c.21 5.4.32 9.85.1 11.33-.31 4.24 16-8.37 17.49-11.55.42-.95 0-3.39-.96-6.67a68.96 68.96 0 0 1-16.63 6.89z"/><path id="gglday" d="M957.87 149.62c-2.33 1.59-3.82 2.43-7.2 1.7a6.72 6.72 0 0 1-3.29-1.8c-.74 2.53-1.38 4.97-2.12 7.51-3.28 12.6-6.14 25.85-6.36 38.88 0 .21.11.32.22.42a63.1 63.1 0 0 0-.43 10.91c0 .53.96.96 1.06.22 3.4-13.56 5.62-27.12 10.8-40.26a133.88 133.88 0 0 1 9.75-19.49c-.74.64-1.59 1.27-2.43 1.9z"/><path id="ggldaz" d="M975.24 344s.64 10.18 1.17 16.21c.63 6.47 3.5 20.98 3.5 20.98l58.04-6.25s1.06-16.74-2.22-25.85c-3.18-9.11-60.49-5.08-60.49-5.08z"/><path id="ggldaA" d="M976.93 364.13c1.38-.1 2.65.1 4.35.42.74.1 1.06.32 1.27.43.1-.11.21-.11.42-.22 1.27-.53 1.8-1.48 3.29-1.8 2.43-.63 4.87.1 7.1.85.95.32 2 .74 2.85 1.17 2.34 1.16.85.74 2.76.53 2.75-.32 4.55.2 7.2.84 2.86.74 4.77-1.37 7.63-1.48 1.8-.1 3.39.53 5.08 1.06.64.21 2.02.42 2.76.74a.8.8 0 0 1 .42-.21 6.67 6.67 0 0 1 4.03-1.8c2.75-.21 5.3-.1 7.84-1.06 1.37-.53 2.75-.95 4.02-1.48-.31-4.45-.84-9.22-2.22-12.82-3.29-9.22-60.49-5.09-60.49-5.09s.64 10.17 1.17 16.21c.1.85.31 2.23.52 3.7z"/><path id="ggldaB" d="M1089.22 313.71s2.86 22.46 1.7 32.95c-1.17 10.27-4.88 30.19-4.88 30.19l-48.1-1.91s-1.58-13.88-2.22-25.85c-.53-11.97 53.5-35.38 53.5-35.38z"/><path id="ggldaC" d="M1042.71 362.43c2.76-.42 5.09-4.13 7.84-5.3 2.97-1.26 6.68-1.37 9.75-1.69 2.54-.2 9.74.21 11.12-.63-.42.1.64-2.12.95-2.65a6.72 6.72 0 0 1 2.34-2.23c2.11-1.16 4.87-.95 7.2-.84 3.18.2 5.61.42 8.58-.1.21-1.6.42-3.19.53-4.56 1.16-10.5-1.7-32.95-1.7-32.95s-54.34 23.41-53.7 35.38c.31 5.4.63 10.7 1.16 15.47 1.7-.21 3.81.42 5.93.1z"/><path id="ggldaD" d="M984.67 268.47s-7.73 9.75-8.16 34.22c-.42 24.47-1.38 35.8-1.59 37.93-.2 2.11-3.28 6.56-4.02 8.58-.85 2 .84 1.59 2.22 1.8 1.38.2 2.23 3.5 2.65 4.87.42 1.38 3.28-3.07 3.28-3.07s.43 6.14 2.23 6.67c1.8.64 3.28-5.5 3.28-5.5s2.86 5.5 9.54 6.67c2.01 0-.85-4.66.84-5.09 1.7-.42 8.16 6.68 9 6.68.86 0-.2-4.24 1.28-4.45 1.38-.21 6.14 3.7 7.1 3.5.95-.22 2.22-3.5 4.87-3.5s4.45 1.27 9 1.37c4.45.22 7.53-2 8.16-2 .64 0 5.09 1.26 6.68.63 1.58-.64 1.58-3.08 3.7-4.03 2.02-1.06 13.88-7.94 15.68-7.52 1.8.42 5.93 3.28 6.68 1.8.74-1.48-3.08-2.65-.43-4.02 2.65-1.38 6.68.84 8.37.63 1.59-.21 1.06-3.92 2.86-4.24 1.8-.42 12.6 2.02 14.3.64 1.6-1.38-2.01-3.7-2.01-3.7s8.58 2.22 9.74-.22c1.28-2.44-4.66 1.59-6.56-2.44-1.91-4.02-1.8-20.12-3.92-30.19-2.12-10.06-11.97-34.21-26.49-43.22-14.5-8.9-78.28 7.2-78.28 7.2z"/><path id="ggldaE" d="M1073.33 294a.8.8 0 0 1-.74-.53c-2.65-7.52-5.93-15.78-7-16.52-1.05-.32-8.79 1.9-15.35 4.23-.43.1-.85-.1-1.06-.53-.1-.42.1-.84.53-1.06 4.34-1.59 14.72-5.08 16.63-4.13 1.9.96 6.14 12.5 7.84 17.38.1.42-.1.84-.53 1.05-.21.11-.21.11-.32.11z"/><path id="ggldaF" d="M1035.3 352.06h-.21c-7-1.59-21.3-2.33-21.4-2.33-.42 0-.74-.43-.74-.85s.42-.74.85-.74c.63 0 14.4.74 21.6 2.33 1.07-.21 5.83-4.03 9.33-6.67 3.5-2.76 7.2-5.62 9.22-6.78.42-.22.84-.11 1.06.31.2.43.1.85-.32 1.06-1.9 1.06-5.51 3.92-9 6.68-6.9 5.3-9.22 6.99-10.39 6.99z"/><path id="ggldaG" d="M1036.15 357.98c-.42 0-.74-.31-.74-.63l-.85-5.09c-.1-.42.21-.84.64-.95.42-.1.84.21.95.64l.85 5.08c.1.42-.21.85-.64.95h-.21z"/><path id="ggldaH" d="M1020.15 361.16c-.1 0-.21 0-.32-.1-2.43-1.06-4.02-5.83-4.23-6.36-.1-.42.1-.85.53-.95.42-.1.84.1.95.53.53 1.8 2.01 4.87 3.28 5.4.43.21.53.63.43 1.06 0 .32-.32.42-.64.42z"/><path id="ggldaI" d="M1024.7 361.27c-.1 0-.2 0-.31-.1-2.76-1.27-1.7-5.62-1.6-5.72.11-.43.54-.64.96-.53.42.1.64.53.53.95-.21.85-.53 3.39.74 3.92.43.21.53.64.43 1.06-.22.32-.43.42-.75.42z"/><path id="ggldaJ" d="M995.69 361.8h-.22c-2.22-.75-3.5-5.4-3.7-6.36-.1-.42.1-.85.53-.95.42-.1.84.1.95.53.53 1.9 1.7 4.87 2.65 5.19.42.1.63.63.53.95-.1.42-.43.64-.74.64z"/><path id="ggldaK" d="M1051.3 353.65c-.22 0-.32-.1-.54-.21-.31-.32-.42-.74-.1-1.17.21-.32.1-2.33-.32-4.24-.1-.42.21-.84.64-.95.42-.1.84.21.95.64.42 2.11.64 4.76-.1 5.61a.58.58 0 0 1-.54.32z"/><path id="ggldaL" d="M1065.91 349.83c-3.39-.1-6.25-3.82-6.46-3.92-.32-.32-.21-.85.1-1.17.33-.32.86-.21 1.17.1 0 0 2.65 3.3 5.2 3.4.42 0 .74.42.74.85 0 .42-.32.74-.75.74z"/><path id="ggldaM" d="M1088.38 336.27a.8.8 0 0 1-.75-.53c-.1-.32-.1-.74-.31-3.5l-.11-.95c0-.43.32-.85.74-.85.43 0 .85.32.85.74l.1.95c.11 1.49.22 2.76.22 3.08.2.42 0 .84-.43.95-.1.1-.2.1-.31.1z"/><path id="ggldaN" d="M1072.92 280.55c-.21 0-.53-.11-.64-.32a183.17 183.17 0 0 0-4.56-6.25c-.32-.32-.21-.85.1-1.17.33-.32.86-.21 1.17.1 1.7 2.13 3.19 4.25 4.67 6.36.21.32.21.85-.21 1.06-.21.22-.43.22-.53.22zm8.05 13.34c-.32 0-.53-.2-.75-.42l-.1-.21a62.02 62.02 0 0 0-3.72-6.57c-.2-.42-.1-.85.22-1.06.42-.21.85-.1 1.06.21a62.8 62.8 0 0 1 3.71 6.68l.1.2c.22.43 0 .85-.31 1.07 0 0-.1.1-.21.1zm4.34 14.82c-.43 0-.75-.31-.75-.63a89.61 89.61 0 0 0-1.7-7.51c-.1-.43.1-.85.53-.96.43-.1.85.1.96.53a67.8 67.8 0 0 1 1.7 7.62c.1.42-.21.85-.64.95h-.1zm1.37 14.74c-.21-2.76-.53-5.3-.85-7.73-.1-.43.21-.85.64-.85.42-.1.85.21.85.63.32 2.44.63 5.09.85 7.74.1.53-.22.95-.75.95a.73.73 0 0 1-.74-.74z"/><path id="ggldaO" d="M1063.37 268.15c-.21 0-.42-.1-.63-.31-1.7-2.02-2.76-3.18-2.76-3.18-.32-.32-.21-.85.1-1.17.33-.32.86-.21 1.17.1 0 0 1.06 1.17 2.76 3.3.32.31.2.84-.1 1.16-.11.1-.33.1-.54.1z"/><path id="ggldaP" d="M1064.22 294.85c-2.96 0-5.5-.1-6.99-.42-5.3-1.06-9.74-15.15-10.27-16.74-.1-.42.1-.85.53-.95.42-.1.84.1.95.53 1.27 4.13 5.4 14.93 9 15.67 4.88.96 21.2-.2 22.14-.42.43-.21.85 0 1.06.42.22.43 0 .85-.42 1.06-.64.22-9.22.85-16 .85z"/><path id="ggldaQ" d="M1127.89 378.11c1.27-13.45 3.07-84.53 1.27-112.7-1.8-28.19-4.24-33.7-3.7-49.06.63-15.36 0-35.48 35.48-34.32 35.49 1.27 113.99-1.27 135.39-1.27 21.4 0 26.9 18.43 26.9 39.2 0 20.86.64 99.26 3.71 118.22 3.07 18.96 10.38 44.07 10.38 44.07z"/><path id="ggldaR" d="M1327.26 338.28c-1.8-11.33-2.76-43.75-3.28-72.56a.92.92 0 0 0-.64-.85c-2.54-.74-5.09-1.59-7.63-2.33-16.1-4.98-32.1-10.49-47.03-18.33-8.37-4.34-23.1-10.17-22.35-21.71 0 0-8.37-8.48-8.37-8.58 6.25-2.02 17.69-6.89 15.68-11.98-.11-.31.31-.63.74-.74 2-.31 8.05-1.59 9.95-3.07 4.24-3.39 3.82-8.05 4.35-8.47.95-.74 8.15-2.12 9.53-5.62l.64-1.9c.1-.64-.32-1.17-.96-1.17-16.63.32-39.5.85-61.76 1.06-.63 0-1.05.63-.84 1.16.42 1.6.95 3.18 1.37 4.77 1.06 4.03 1.6 8.26 2.12 12.4 1.17 9.32 1.91 18.85 1.7 28.28-.43 19.5-4.66 38.67-7.31 57.95-4.13 30.4-8.16 61.12-8.9 91.95 0 .53.42.95.95.95l73.95 1.48c.1 0 .2 0 .31-.1 3.5-1.27 7-2.55 10.38-4.03a389.58 389.58 0 0 0 19.07-8.8c7.31-3.7 14.52-7.83 21.19-12.6a.85.85 0 0 0 .32-.95 291.63 291.63 0 0 1-3.18-16.2z"/><path id="ggldaS" d="M1141.34 275.78l-6.67 8.58s1.06 4.34 14.2 7.52c13.13 3.18 31.99 5.93 31.99 5.93l-6.46-16.63z"/><path id="ggldaT" d="M1285.83 291.57l6.14 6.25s9.22 2.22 23.2-6.14c13.99-8.27 20.77-16.32 18.86-18.75-1.9-2.44-25.95-3.5-25.95-3.5l-21.72 18.33z"/><path id="ggldaU" d="M1292.61 281.5s8.26 29.56 18.12 39.94c9.95 10.38 13.77 8.69 18.11 7.52 4.34-1.16 9-6.57 8.69-12.6-.22-6.04-5.09-32.63-14.3-48.95-9.22-16.31-36.87-3.6-30.62 14.1z"/><path id="ggldaV" d="M1148.86 255.55c-3.4 7.84-9.11 21.61-13.03 36.02-3.92 14.4-9.96 30.72-6.25 34.32 3.7 3.6 19.28 16.63 27.65-.85 8.37-17.58 13.77-32.2 15.36-50.1 1.7-17.9-23.73-19.39-23.73-19.39z"/><path id="ggldaW" d="M1153.84 291.78c4.77 2.12 9.53 4.45 14.09 7 2.12-7.1 3.92-14.2 4.66-22.04 1.59-17.8-24.26-19.6-24.26-19.6a285.14 285.14 0 0 0-10.91 28.92 111.54 111.54 0 0 1 16.42 5.72z"/><path id="ggldaX" d="M1203.31 197.29s-3.28 6.14-1.27 10.8c2.76 6.25 3.4 8.9 3.71 16 .32 6.99-3.39 25.1 6.57 26.27 9.96 1.06 29.02-10.6 34.1-20.66 5.1-10.06.64-13.66.64-13.66s-5.72-12.08-6.99-23c-1.27-11-4.23-16.2-4.23-16.2l-31.15 20.23z"/><path id="ggldaY" d="M1205.22 207.67a5.19 5.19 0 0 1-3.28.42c1.59 3.6 2.01 4.34 2.97 8.26 1.59.85 3.17.96 5.61.21 6.14-2.43 11.44-9.32 14.83-15.04.21-.42.43-.85.74-1.27-6.88 2.54-14.09 4.45-20.87 7.42z"/><path id="ggldaZ" d="M1297.8 297.18c10.6-5.4 21.4-9.22 33.27-11.34-2.12-6.46-4.66-13.03-7.63-18.32-9.21-16.21-37.07-3.6-30.72 14.09-.1-.11 1.91 7.1 5.09 15.57z"/><path id="ggldba" d="M1296.01 225.36c-11.65-1.06-25.74-4.55-34.85-7-4.24-1.16-10.07-3.49-15.36-5.5-.22 1.8.1 6.14-3.6 13.45-5.09 10.07-18.76 18.54-28.71 17.48-9.96-1.06-7.2-14.4-7.52-21.5a30.25 30.25 0 0 0-1.91-9.11c-6.04 2.54-11.44 5.61-16.53 8.15-10.27 5.2-26.06 6.89-31.88 12.72-4.88 4.76-17.7 44.17-20.66 50.2 2.01-.52 18.22.22 26.59 2.98 8.26 2.64 11.86 5.5 11.86 5.5s-1.37 14.83 1.49 38.78c2.96 24.68-.74 38.98-.74 38.98.63 10.28 131.57 15.15 124.26-1.7-7.31-16.84-6.68-63.03-6.15-71.5.53-8.48 15.79-15.57 18.54-17.06 2.75-1.59 14.3-7.73 23.62-7.73-6.03-4.13-26.9-45.97-38.45-47.14z"/><path id="ggldbb" d="M1292.19 297.28s-.1-4.02 5.72-8.9c5.83-4.87 2.54-3.7 1.38-3.07-1.17.64-4.03 1.91-6.15 1.06-2.12-.84-1.7-5.3-3.28-7.94-1.48-2.65-1.9-2.65-2.23-.32-.2 2.33-2.86 28.6-3.6 31.67-.53 2.33-.74 5.51-.63 9.64.1 4.14.74 21.61-.21 25.64-.96 4.03 8.79-15.47 8.79-15.47s-.1-29.87.21-32.3z"/><path id="ggldbc" d="M779.68 365.4h652.34l6.57 149.7-658.91.73z"/><path id="ggldbd" d="M1105.11 458.26c-.32-2.11.1-8.26-2.12-8.68-2.12-.43-9.96-.64-12.07-.64-2.12 0 .42-9-1.7-8.8-16.63-1.58-20.55-.52-21.19 0 0 0-24.04 32.43-21.6 34.23 4.44 3.39 3.28 7.52 1.69 11.65 4.24.21 24.9.42 30.83.42 10.8.1 28.7 3.29 29.87.74.95-1.48-1.06-9.95-1.9-13.66-1.17-4.87-.96-10.17-1.8-15.26z"/><path id="ggldbe" d="M894.1 390.09c-1.07.31.42 4.23 5.5 3.8 2.12-.2-2.22 4.78.32 5.41.95.21 3.7.85 5.61.32 1.91-.53 7.95-3.81 9.85-4.03 2.86-.42 1.28 3.6 2.12 6.57 1.7 5.93 21.72-5.3 25.11-6.99 4.24-2.01 8.16-4.13 11.02-8.05 2.75-3.7 4.76-7.31 1.48-10.17-12.5 2.65-23.3 7.1-35.7 10.06-7.73 1.8-17.7.96-25.32 3.08z"/><path id="ggldbf" d="M1025.45 426.25c-.96-.31-40.05-3.07-58.59 1.38-17.48 4.24-36.33 8.37-52.54 16.2-3.6 1.92 1.9 3.5 3.39 4.35 4.66 2.33 10.49 4.77 15.25 5.83 8.06 1.8 13.99 4.24 22.15 5.72 7.52 1.38 14.08 3.5 21.6 4.98 2.76.53 8.9-6.57 30.1-18.54 3.17-1.8 23.3-11.12 25.2-13.35 3.92-4.34 2.02-3.92-6.56-6.57z"/><path id="ggldbg" d="M1256.28 389.45c7.2-1.8 14.41-3.6 21.5-5.72 13.88-4.13 26.7-10.8 39.1-18.22l-62.19.1c-.95.64-1.9 1.28-2.75 1.91-7.52 5.72-10.06 14.83-14.09 22.99 5.83 2.01 12.6.42 18.43-1.06z"/><path id="ggldbh" d="M1400.98 477.49c-3.7-2.34-8.58-2.86-12.82-3.18-28.5-2.54-57.2-4.45-85.8-1.9-16.32 1.47-62.93-9.65-79.13-7.53-12.19 1.59-21.09 1.59-19.5 5.19 1.7 3.92 51.28 34.75 52.12 35.17 7.2 3.18 15.05 4.45 22.46 3.07a395.64 395.64 0 0 1 25-3.92c18.12-2.33 36.13-4.55 54.03-7.84 8.47-1.48 16.95-2.86 25.42-4.76 6.36-1.38 13.88-2.65 19.6-5.83 4.24-2.33 1.9-6.36-1.38-8.47z"/><path id="ggldbi" d="M1245.58 420.07c-4.03-3.92-18.44-15.68-22.57-19.39-6.67-4.87-65.47 14.73-101.38 11.97-2.33 7 2.86 14.3 6.25 20.55 2.86 5.2 3.71 13.56 9.22 16.64 4.77 2.64 12.82 1.37 17.9.95 8.26-.85 16.1-1.7 25.43-2.76 17.69-2 35.27-3.8 52.96-6.35a526 526 0 0 0 18.65-2.86c2.12-.32 5.3-.64 6.99-1.9 1.16-.86 1.48-1.5.1-3.4-3.39-4.66-9.42-9.53-13.55-13.45z"/><path id="ggldbj" d="M1118.56 409.04c.21 1.6 15.79 35.39 16.42 36.66.64 1.16 1.06 3.39 5.83 3.18 4.77-.32 107.1-12.19 110.49-12.61 3.28-.42 3.5-3.7.63-7.1-2.96-3.28-30.93-26.9-32.52-28.6-1.59-1.7-2.75-1.7-4.66-1.48-1.9.2-91.42 7.52-93.22 7.73-1.9.21-3.4-.32-2.97 2.22z"/><path id="ggldbk" d="M1130.96 414.24c.21 1.16 10.7 22.88 11.12 23.72.85 1.7 2.33 2.76 4.35 2.44 3.81-.42 86.02-10.91 88.77-11.33.95-.22 1.27-1.17.32-2.02-2.44-2.33-20.55-17.69-21.83-18.96-1.27-1.27-2.11-1.38-3.7-1.16-1.6.2-75.85 5.4-77.33 5.61-1.38.21-2.02-.1-1.7 1.7z"/><path id="ggldbl" d="M979.58 163.6s5.3-8.79 26.27-8.79c20.98 0 26.7 3.07 26.7 3.07l.63 43.43s-27.86 6.9-29.13 6.15c-1.27-.74-21.19-16.53-21.4-17.7-.21-1.37-3.07-26.16-3.07-26.16z"/><path id="ggldbm" d="M987.2 161.7c3.08 2.32 6.47 4.23 9.86 6.24 7.3 4.35 13.45 9.22 22.03 10.07 4.56.42 10.06.1 13.67-1.6l-.22-18.64s-5.72-3.07-26.7-3.07c-10.9 0-17.47 2.33-21.39 4.66.85.85 1.8 1.7 2.75 2.33z"/><path id="ggldbn" d="M960.3 207.25c2.44 2.86 6.36 12.7 6.36 18 0 5.3 1.06 39.2-1.06 52.97-2.12 13.77-5.3 19.07-11.66 19.07-6.35 0-11.65-9.53-13.77-23.3-2.12-13.78-3.18-29.67-4.23-38.14-1.06-8.48-3.18-33.9 1.05-33.9 4.24 0 16.95-2.12 23.31 5.3z"/><path id="ggldbo" d="M966.76 231.5c0-2.96-.1-5.19-.1-6.24 0-5.3-3.93-15.15-6.36-18.01-6.36-7.42-19.07-5.3-23.3-5.3-3.5 0-2.66 16.95-1.7 27.86a98.4 98.4 0 0 1 31.46 1.7z"/><path id="ggldbp" d="M952.36 276.63c-5.3 1.06-10.6 2.12-12.71 13.77-2.12 11.65-4.24 24.36-4.24 34.96 0 10.59 4.24 38.13 1.06 42.37-3.18 4.24 2.12 8.47 5.3 9.53 3.17 1.06 13.77 2.12 15.89-9.53 2.11-11.65 13.03-77.01 6.56-86.65-6.56-9.75-11.86-4.45-11.86-4.45z"/><path id="ggldbq" d="M893.98 390.62c-1.38-2.65 10.38-8.58 18.86-12.93 8.9-4.66 21.82-7.41 24.9-10.17 4.86-4.55 19.59.96 19.59.96s.21 4.66-1.7 9.21c-2 4.66-25.84 22.25-31.78 21.3 0 0-4.97-1.8 2.97-8.37 7.95-6.57.95-5.51-.95-4.66-2.02.95-14.94 6.46-18.86 10.17-3.92 3.7-5.93 3.7-7.94 2.75-2.02-.95 0-5.5 2.96-7.42-4.02 1.06-6.99 1.06-8.05-.84z"/><path id="ggldbr" d="M1056.49 173.98c-1.48 9.11 3.5 33.48 11.97 46.4 8.48 12.93 16.95 24.79 25.64 25.43 8.68.74 13.24-14.41 8.47-22.57-4.66-8.26-9.64-15.57-12.71-22.56-3.07-7.1-9-28.29-14.62-33.69-5.61-5.5-16.2-8.8-18.75 7z"/><path id="ggldbs" d="M1085.83 189.56c-3.07-8.69-6.88-19.07-10.59-22.57-5.61-5.4-16.2-8.68-18.85 7.1-1.17 7 1.58 22.99 6.67 35.91 5.19-8.8 14.09-15.89 22.77-20.44z"/><path id="ggldbt" d="M1103.32 224.4c-5.09-3.07-17.9 1.07-18.12 17.7-.1 9.96 9.22 20.02 12.29 27.75 3.07 7.74 5.93 14.4 9.22 15.04 3.28.64 11.54-1.16 10.17-11.12-1.38-9.85-3.29-13.66-3.5-16.52-.21-2.86.42-13.03-2.33-20.56-2.97-7.41-6.78-11.75-7.73-12.28z"/><path id="ggldbu" d="M1108.07 270.9c-6.14.43-6.78 10.81-5.61 15.37 1.16 4.55 6.04 10.8 7.2 12.4-1.27.73 1.17 6.14 1.49 6.45-1.6 1.49-1.7 4.77-.11 5.94 1.59 1.16 6.14 1.58 8.8 1.48 2.53-.1 4.76-.64 5.29-1.06 1.48-1.17 3.5-3.7 2.12-5.4 2.12-.75 1.9-5.3 1.7-6.15-.11-.85 5.08 4.45 7.62 4.56 2.54.1 5.5-.53 2.54-4.13-2.96-3.6-4.45-9.43-7.2-11.87-2.76-2.44-11.76-12.18-15.15-14.3-3.39-2.44-6.36-3.5-8.69-3.28z"/><path id="ggldbv" d="M1118.35 290.93c7.2 8.16 4.45 12.07.74 11.23-2.64-.64-7.41-5.62-7.83-6.36-.22-.53-4.03-8.9-4.24-9.1-.32-.43-3.71-8.27-3.82-8.59 0-.32-.74-.74-.95.64-.42 2.75-.21 5.61.21 7.52 1.17 4.55 6.04 10.8 7.2 12.4-1.26.73 1.17 6.14 1.49 6.45-1.59 1.49-1.7 4.77-.1 5.94 1.58 1.16 6.14 1.58 8.79 1.48 2.54-.1 4.76-.64 5.3-1.06 1.48-1.17 3.49-3.7 2.11-5.4 1.9-.64 1.9-4.13 1.8-5.62-1.27-1.37-9.64-10.6-10.7-9.53z"/><path id="ggldbw" d="M1037.95 227.27c-1.7-32.31-4.56-49.68-6.25-57.63.2 2.12.2 4.24-.1 6.36-1.39 9-4.56 10.9-6.68 16.84-2.12 5.93-23.94 2.33-32.74-10.17a60.4 60.4 0 0 1-3.28-5.3c1.7 11.13 4.34 34.43 4.13 55.51-.1 13.56.32 21.4.21 30.62 0 4.02.1 8.9.22 13.13 7.62.22 17.37 5.72 33.47 2.65a59.36 59.36 0 0 0 11.76-3.39c.53-9.53.53-24.68-.74-48.62z"/><path id="ggldbx" d="M984.98 171.54s.21-1.06.63-1.9c-2-5.83-1.9-9.54-1.9-9.54s-8.05 4.24-16.85 8.05c-8.79 3.81-16.63 6.89-19.7 9.96 0 0 3.92 26.48 18.11 47.35 2.44 3.5 9.43 19.28 10.81 27.33 1.38 8.05-.95 14.52 1.17 18.22 2 3.6 6.25 5.83 13.24 5.51-.43-12.08-.74-32.41-.74-43.75 0-16.1-4.77-61.23-4.77-61.23z"/><path id="ggldby" d="M1063.8 243.79c0-2.86.95-12.08 1.16-19.7.21-7.63.42-15.9-7.63-28.5s4.56-35.07 1.9-36.02c-2.64-.95-27.75-4.03-31.03-2.86 0 0 1.17 2.54 2.22 6.25.32-1.9 1.17-4.98 3.4-.42 2.85 6.14 6.77 53.18 7.52 64.3.53 7.52.2 32.2 0 47.77 5.72-2.86 8.36-5.72 12.07-7.1 5.93-2.11 13.77-5.93 13.24-15.67-.42-3.81-2.86-5.2-2.86-8.05z"/><path id="ggldbz" d="M1030.32 164.13s.53 1.7 1.38 5.61a39.31 39.31 0 0 0-1.27-6.67c-.11.53-.11 1.06-.11 1.06z"/><path id="ggldbA" d="M1037.95 289.56c.43 1.27 1.17 3.28 1.9 3.28.75 0 2.87.1 2.66-1.7-.21-1.8-.96-1.69-1.17-3.28-.1-.53 0-5.82 0-13.24-.74.42-1.59.74-2.54 1.17-.32 9.53-.95 13.13-.85 13.77z"/><path id="ggldbB" d="M1041.34 226.84c-.74-11.12-4.66-58.15-7.52-64.3-2.12-4.55-3.07-1.37-3.39.43a39.31 39.31 0 0 1 1.27 6.67c1.7 7.95 4.56 25.32 6.25 57.63 1.27 23.83 1.17 39.09.85 48.41.95-.42 1.8-.74 2.54-1.17.21-15.46.42-40.14 0-47.67z"/><path id="ggldbC" d="M987.95 171.97c-.96-4.24-1.91-3.6-2.44-2.33.74 2.23 1.9 4.87 3.39 7.63a41.61 41.61 0 0 0-.95-5.3z"/><path id="ggldbD" d="M991.97 276.53c-.53 0-.95.1-1.48.1.21 5.2.42 8.9.53 9.75.64 2.86 2.33 1.48 2.65.63.21-.53 0-5.08-.1-10.59-.54.1-1.07.1-1.6.1z"/><path id="ggldbE" d="M993.35 263.4c.1-9.22-.42-16.96-.21-30.62.2-21.08-2.44-44.39-4.13-55.51a50.05 50.05 0 0 1-3.4-7.63c-.42.85-.63 1.9-.63 1.9s4.77 45.13 4.77 61.34c0 11.34.31 31.57.74 43.75.53 0 .95 0 1.48-.1.53 0 1.06-.1 1.6 0-.12-4.35-.33-9.11-.22-13.14z"/><path id="ggldbF" d="M1058.82 163.17c.53-2.01.74-3.39.1-3.6-2.64-.95-27.75-4.03-31.03-2.86 0 0 2.54 5.5 3.39 12.08 9.22-1.8 18.43-3.6 27.54-5.62z"/><path id="ggldbG" d="M988.16 176.52c-4.98-9.53-4.87-16.42-4.87-16.42s-8.05 4.24-16.85 8.05c-8.79 3.81-16.63 6.89-19.7 9.96 0 0 .1.74.32 2.01 13.88-.1 27.54-1.59 41.1-3.6z"/><path id="ggldbH" d="M1054.69 185.74c-.1-3.7.42-7.52 1.27-11.12-8.37 1.8-16.84 3.5-25.21 5.08-1.17 4.56-2.97 6.9-4.45 9.86 9.53-1.27 18.96-2.44 28.39-3.82z"/><path id="ggldbI" d="M963.8 207.45a425.2 425.2 0 0 1 14.3-6.46c8.79-3.6 18.22-6.04 27.64-7.94a34.02 34.02 0 0 1-9.74-5.83 404.36 404.36 0 0 0-18.96 4.13c-8.48 2.12-17.17 3.6-25.64 6.15 1.38 4.34 3.18 9 5.3 13.77 2.43-1.38 4.76-2.76 7.1-3.82z"/><path id="ggldbJ" d="M1023.86 215.72a260.33 260.33 0 0 0 37.92-11.34 33.37 33.37 0 0 0-2.54-5.19c-15.04 4.34-30.4 7.73-45.87 10.8-16.95 3.4-34.85 5.09-51.06 11.34.53.85 1.06 1.7 1.59 2.44 20.23-1.49 40.04-3.6 59.96-8.05z"/><path id="ggldbK" d="M998.12 244.1a358 358 0 0 0 33.16-6.24 200.63 200.63 0 0 0 33.58-10.92c0-.95.1-2 .1-2.96.11-2.97.22-6.04-.2-9.43a272.35 272.35 0 0 1-37.82 11.23c-19.07 4.34-38.14 6.46-57.42 8.16 1.59 3.6 3.28 7.84 4.56 11.75 8.05-.53 16.1-.53 24.04-1.58z"/><path id="ggldbL" d="M1065.6 248.56c-2.65.74-5.4 1.38-8.05 2.01-25.43 8.9-52.86 10.7-79.66 10.6-.53 0-1.06-.11-1.49-.22-.1 3.4-.42 6.36.22 8.58.63.11 1.16.22 1.8.53 9.21 4.14 20.02 2.02 29.66.96 9.53-1.06 18.85-.96 28.18-3.5 10.7-2.96 20.76-7.73 30.3-13.35.1-.74.1-1.58.1-2.43a12.43 12.43 0 0 0-1.06-3.18z"/><path id="ggldbM" d="M930.64 209.15c-.42-.84 5.3-27.43 16.1-31.14 0 0 12.61 7.52 17.27 24.36 4.66 16.85 4.24 23 3.07 26.91-1.16 3.92-5.08-7.73-17.9-11.44-12.82-3.5-18.54-8.69-18.54-8.69z"/><path id="ggldbN" d="M965.39 215.62c-11.34-.22-22.25-3.92-33.37-5.3 2.33 1.7 7.95 5.08 17.16 7.73 12.82 3.71 16.74 15.26 17.9 11.44.85-2.64 1.28-6.35 0-13.98-.53 0-1.06.1-1.7.1z"/><path id="ggldbO" d="M964.75 204.92c-.21-.85-.42-1.6-.64-2.44-.74-2.76-1.69-5.2-2.75-7.42-2.65-.1-5.3-.74-7.94-1.48-5.4-1.48-10.81-2.75-16.42-2.86h-.64a74.55 74.55 0 0 0-3.39 9.11c10.6 1.38 20.97 4.77 31.78 5.09z"/><path id="ggldbP" d="M951.3 182.14c.2.1.52.1.74.2-2.97-2.85-5.3-4.23-5.3-4.23a14.12 14.12 0 0 0-3.92 2.44c2.86.42 5.72.95 8.47 1.59z"/><path id="ggldbQ" d="M928.84 218.58c2.44 4.03 5.93 2.65 5.93 2.65s6.68-.43 16.53 2.86c9.74 3.28 15.46 6.88 15.46 6.88s1.8-3.5-3.7-9.53c-5.94-6.57-14.62-13.03-32.2-15.68-4.67-.63-2.02 12.82-2.02 12.82z"/><path id="ggldbR" d="M1054.69 162.75c2.01-2.86 4.24-3.18 4.24-3.18s8.79-2.75 13.66 2.97c4.88 5.72 9.96 10.17 10.8 11.86.86 1.6 1.39 5.3.64 4.24-.74-1.06-9-1.8-14.09 5.93-5.08 7.74-8.15 22.04-8.15 22.04s-18.86-27.12-7.1-43.86z"/><path id="ggldbS" d="M1063.06 170.48c2.97-3.17 6.67-5.3 10.7-6.78a11.6 11.6 0 0 0-1.06-1.16c-4.87-5.72-13.67-2.97-13.67-2.97s-2.22.32-4.23 3.18c-4.88 6.89-4.45 15.68-2.33 23.52 3.81-4.98 6.14-11.12 10.59-15.79z"/><path id="ggldbT" d="M1081.8 172.39c-.21.1-.42.1-.74.21-4.87 1.17-9 3.07-12.08 7.1-3.6 4.87-6.03 10.28-9.95 14.94a4.56 4.56 0 0 1-2.97 1.7 79.4 79.4 0 0 0 5.72 10.16s3.07-14.3 8.16-22.03c5.08-7.74 13.24-6.89 14.09-5.94.84 1.06.2-2.64-.64-4.23a9.04 9.04 0 0 0-1.59-1.91z"/><path id="ggldbU" d="M1083.82 182.77s3.92-2.86 2.22-6.89c-1.7-4.02-2.86-7.3-7.52-6.67-4.66.63-11.02 4.87-15.47 16.74-4.45 11.86-3.07 16.73-3.07 16.73l1.8 4.03c0-.21 4.56-21.3 22.04-23.94z"/><path id="ggldbV" d="M992.82 282.35c-2.12-.1-6.78 1.38-10.17 5.3-3.39 3.92.96 26.59 1.49 30.3.53 3.7-.85 6.67 6.35 7.41 7.2.74 37.08 2.44 40.68 2.75 3.6.32 4.56-.1 7.63-3.5 2.96-3.38 7.2-4.76 6.35-12.6a271.06 271.06 0 0 0-2.96-20.13c-.64-3.7-2.12-5.61-5.3-5.93-3.18-.32-7.1-.53-9.32-.74-2.33-.1-2.65-7.1-5.2-8.26-2.53-1.17-15.78-2.86-18-1.49-2.23 1.38-6.36 6.15-7.63 6.89-1.27.64-3.92 0-3.92 0z"/><path id="ggldbW" d="M1029.26 164.77s4.56 15.15 5.61 63.45c1.06 48.2-2.33 60.91-1.9 62.19.32 1.27 1.06 3.39 1.8 3.39s2.86.2 2.65-1.6c-.21-1.8-.85-1.8-1.06-3.38-.21-1.6 2.33-49.8 1.9-60.92-.42-11.12-2.86-58.26-5.5-64.5-2.65-6.26-3.5 1.37-3.5 1.37z"/><path id="ggldbX" d="M983.61 170.8s3.39 45.24 2.86 61.45c-.53 16.2-.85 50.74-.32 53.5.53 2.75 2.33 1.58 2.65.73.32-.84 0-14.5.32-23.72.32-9.22.1-16.95.74-30.62 1.06-25.64-1.9-54.56-3.18-60.91-1.48-7.1-3.07-.43-3.07-.43z"/><path id="ggldbY" d="M1015.49 283.2c1.27-.85 6.04-3.92 5.4-4.87-.63-.96-13.88-2.55-15.25-2.23-1.38.32-5.94 4.24-6.15 4.98-.21.74 14.52 3.18 16 2.12z"/><path id="ggldbZ" d="M1017.08 306.4c1.9 5.82 1.59 14.51-1.8 18.11-1.27 1.27-5.72 3.6-7.52 4.24a15.14 15.14 0 0 1-18.97-9.75c-1.27-3.92-1.05-13.13 1.6-16.52 2.22-2.76 6.67-5.4 9.95-6.46 6.78-2.23 14.2 2.43 16.74 10.38z"/><path id="ggldca" d="M1011.47 310.95c2.44 7.42 1.27 14.73-4.98 16.74-6.25 2.01-13.24-2.43-15.57-9.85s-.53-13.67 5.72-15.68 12.4 1.38 14.83 8.8z"/><path id="ggldcb" d="M1010.09 311.06c1.8 5.4.85 10.8-3.6 12.3-4.56 1.47-9.64-1.8-11.44-7.21-1.8-5.4-.32-9.96 4.23-11.44 4.56-1.49 9.11.84 10.8 6.35z"/><path id="ggldcc" d="M1005.64 308.3c2.54 2.12 3.81 4.88 2.33 6.68-1.48 1.8-3.07-.64-5.5-2.86-2.55-2.12-5.1-2.54-3.61-4.34 1.48-1.7 4.24-1.6 6.78.52z"/><path id="ggldcd" d="M1001.3 321.23c-3.08-1.17-4.24-4.66-2.76-6.46 1.38-1.9 3.07.42 5.72 2.43 1.27 1.06 1.7 2.76 1.48 3.6-.31.64-1.06 1.7-4.45.43z"/><path id="ggldce" d="M1031.49 160.53s-1.06 10.6 5.5 17.48c6.57 6.88 7.31 5.93 7.31 5.93s1.28 6.14 5.09 6.89c3.81.74-2.44-3.29-1.27-9.54 1.27-6.35 10.6-15.89 12.18-27.86 1.59-11.97-3.28-17.27-3.92-22.03-.63-4.66 1.38-16.1-1.38-25.43-2.86-9.32-5.93-12.18-9.53-17.9-3.7-5.72-16.1-18.11-29.98-18.96-13.88-.85-26.9 4.02-29.55 6.88-2.65 2.86 45.55 84.54 45.55 84.54z"/><path id="ggldcf" d="M993.78 159.26s14.51 11.86 26.9 11.44c12.4-.42 20.98-18.75 23-27.86 2-9.22 2.43-21.19.2-26.9-2.22-5.73-6.88-23.84-21.18-25.43-14.3-1.6-21.4 1.37-29.13 6.88-7.74 5.51-23.41 39.3.2 61.87z"/><path id="ggldcg" d="M1008.61 129.28c0-1.29.85-2.33 1.9-2.33 1.06 0 1.91 1.04 1.91 2.33s-.85 2.33-1.9 2.33c-1.06 0-1.91-1.04-1.91-2.33z"/><path id="ggldch" d="M1035.62 130.23c0-1.22.8-2.22 1.8-2.22s1.8 1 1.8 2.22c0 1.23-.8 2.23-1.8 2.23s-1.8-1-1.8-2.23z"/><path id="ggldci" d="M1028.31 149.61c-.42 0-.95-.1-1.37-.2-1.27-.43-1.91-1.38-1.91-1.49-.21-.42-.1-.85.21-1.06.43-.21.85-.1 1.06.21 0 0 .43.53 1.06.74.85.22 1.59.22 2.23-.2a2.21 2.21 0 0 0 1.16-1.7c.21-.85-.42-1.6-1.27-2.55a6 6 0 0 1-1.06-1.37 8.62 8.62 0 0 1-.53-3.92c0-.43.42-.85.85-.74.42 0 .74.42.74.84 0 .64 0 2.33.42 3.18.1.32.53.64.85 1.06.85.95 2.01 2.23 1.7 3.92a3.93 3.93 0 0 1-4.14 3.28z"/><path id="ggldcj" d="M1021.85 155.76c-.96 0-2.01-.1-3.18-.53-3.81-1.16-6.14-4.66-6.25-4.87a.82.82 0 0 1 .21-1.06.82.82 0 0 1 1.06.21s2.12 3.18 5.3 4.13c3.18.96 5.3 0 5.4-.1.42-.21.85 0 1.06.32.21.31 0 .84-.32 1.05.1.22-1.16.85-3.28.85z"/><path id="ggldck" d="M1006.17 120.17c-.32 0-.53-.1-.74-.43-.22-.42-.11-.84.31-1.05.22-.11 5.4-2.87 9.54 0 .32.2.42.74.21 1.05a.82.82 0 0 1-1.06.22c-3.39-2.33-7.84 0-7.84 0-.21.2-.32.2-.42.2z"/><path id="ggldcl" d="M1041.98 122.81a.8.8 0 0 1-.53-.21c-2.97-3.18-7-1.17-7-1.17-.42.22-.84.11-1.05-.31-.22-.43-.11-.85.31-1.06a7.44 7.44 0 0 1 8.9 1.48c.32.32.32.85 0 1.16-.32.11-.42.11-.63.11z"/><path id="ggldcm" d="M959.99 161.16c1.06 10.06 10.8 13.03 15.25 19.17 4.45 6.15 19.39 13.67 20.76 12.82 1.38-.85-5.61-7.42-5.4-18 .21-10.6 5.62-20.88 5.62-29.99 0-9.1-3.4-13.35-3.92-19.7-.85-9.43 6.14-29.56 19.7-33.16 23.1-6.25 4.45-13.56 4.45-13.56s-14.62-10.17-25.64-5.5c-11.01 4.65-18.43 15.67-20.86 29.65-2.44 14.1-2.65 35.5-4.88 43.23-2.22 7.73-5.5 11.12-5.08 15.04z"/><path id="ggldcn" d="M999.07 98.23c-1.38 6.36-.21 13.67 3.92 15.47 4.13 1.8 11.23 4.45 14.83 3.7 4.03 1.6 9.75 3.08 13.46 2.66 3.7 1.05 11.86-.64 13.03-1.8 1.58.84 8.36-3.71 7.94-11.02-.42-7.31-5.93-14.1-13.45-18.12-9-4.98-35.39-11.12-39.73 9.11z"/><path id="ggldco" d="M1017.82 117.1c-.32 0-.53-.1-.63-.43a29.6 29.6 0 0 1-3.82-20.12c.1-.43.53-.75.96-.64.42.1.74.53.63.95 0 .11-1.9 9.96 3.6 18.97.22.42.11.84-.2 1.06-.22.1-.43.2-.54.2z"/><path id="ggldcp" d="M1031.27 119.75c-.1 0-.21 0-.32-.11-.42-.21-.53-.64-.31-1.06 0-.1 1.48-3.18 1.58-11.02.11-7.94-1.37-11.97-1.37-12.07a1 1 0 0 1 .42-1.06 1 1 0 0 1 1.06.42c.1.21 1.59 4.34 1.48 12.6-.1 8.27-1.7 11.55-1.8 11.66-.2.42-.42.64-.74.64z"/><path id="ggldcq" d="M1037.85 119.53c-.21 0-.43-.1-.64-.32-.32-.31-.21-.84.1-1.05 0 0 2.13-1.91 4.88-9 2.65-7-2.22-12.93-2.22-12.93-.32-.32-.22-.85.1-1.17.32-.32.85-.21 1.17.1.2.33 5.5 6.68 2.54 14.52-2.86 7.63-5.2 9.53-5.3 9.64-.31.21-.42.21-.63.21z"/><path id="ggldcr" d="M1041.34 118.9a.8.8 0 0 1-.53-.21.83.83 0 0 1 0-1.17s3.28-3.6 5.3-8.8c1.8-4.76.31-8.57.31-8.68-.2-.42 0-.85.43-1.06.42-.2.84 0 1.06.43.1.2 1.7 4.45-.22 9.74-2 5.62-5.5 9.22-5.61 9.43-.32.32-.53.32-.74.32z"/><path id="ggldcs" d="M1044.3 183.72c-.42 0-.74-.31-.74-.63-.1-.43-1.58-10.7-.2-17.9.73-3.71 2.11-6.47 3.6-9.11 1.16-2.23 2.32-4.45 2.85-7 1.06-5.19-1.7-8.68-1.7-8.68-.3-.32-.2-.85.12-1.17.31-.32.84-.21 1.05.1.11.22 3.18 4.14 2.02 9.97-.53 2.75-1.7 4.97-2.97 7.41-1.38 2.54-2.75 5.2-3.39 8.69-1.27 6.88.21 17.26.21 17.37.1.42-.2.85-.63.95h-.21z"/><path id="ggldct" d="M1042.19 181.92c-.22 0-.53-.1-.64-.31-6.25-9.64-1.7-25.43-1.59-26.06.1-.43.53-.64.95-.53.43.1.64.53.53.95 0 .1-4.44 15.68 1.38 24.79.21.32.1.85-.21 1.06-.21 0-.32.1-.42.1z"/><path id="ggldcu" d="M1120.47 307.99c-5.72 0-9.43-2.86-9.64-2.97-.32-.31-.43-.74-.1-1.16.31-.32.73-.43 1.16-.1.2.2 6.25 4.86 15.04 1.37.42-.21.85 0 1.06.42.21.43 0 .85-.42 1.06a19 19 0 0 1-7.1 1.38z"/><path id="ggldcv" d="M1120.68 302.37a10.9 10.9 0 0 1-3.7-.74c-8.06-2.54-11.23-16.74-11.34-17.27-.1-.42.21-.84.64-.95.42-.1.84.21.95.64 0 .1 3.18 13.87 10.28 16.1 3.6 1.16 4.55.42 4.76.1.43-.63 0-2-.21-2.33-.95-1.16-5.61-7.3-4.55-8.79.1-.21.42-.42.63-.42.42 0 1.59-.1 11.44 10.38.32.32.32.85 0 1.16a.83.83 0 0 1-1.16 0c-3.29-3.5-6.89-7.1-8.9-8.9.95 1.7 2.65 4.24 3.7 5.62.54.74 1.28 2.75.32 4.24a3.59 3.59 0 0 1-2.86 1.16z"/><path id="ggldcw" d="M1102.25 280.65a.84.84 0 0 1-.85-.85c0-4.23 2.01-5.82 2.12-5.93.32-.32.85-.21 1.16.1.32.33.22.86-.1 1.07-.1.1-1.49 1.27-1.49 4.66 0 .63-.42.95-.84.95z"/><path id="ggldcx" d="M1116.77 274.72a.8.8 0 0 1-.53-.21c-1.6-1.38-3.29-2.23-3.29-2.23-.42-.2-.53-.63-.31-1.06.2-.42.63-.53 1.06-.31.1 0 1.9.95 3.6 2.43.31.32.31.74.1 1.17-.2.1-.42.21-.63.21z"/><path id="ggldcy" d="M901.93 392.42a.8.8 0 0 1-.53-.21.83.83 0 0 1 0-1.17c.42-.42 9.64-10.17 16.84-12.92.43-.1.85 0 1.06.42.1.43 0 .85-.42 1.06-6.89 2.65-16.21 12.4-16.32 12.5-.2.21-.42.32-.63.32z"/><path id="ggldcz" d="M1034.03 325.36h-.32c-.53-.21-1.8-.64-3.71-25 0-.43.32-.85.74-.85.43 0 .85.32.85.74.85 10.7 2.12 22.35 2.97 23.73.31.21.42.53.2.95a.9.9 0 0 1-.73.43z"/><path id="ggldcA" d="M1201.4 125.14c-7.41.95-14.5 16.2-16.42 21.72-1.8 5.4-4.45 12.82-5.19 17.16-2.75 16.63-.63 30.19 4.88 37.6 5.61 6.36 13.77 7.63 20.55 7.63 8.9-.1 18-4.34 23.51-9.95 3.92-4.03 6.68-8.9 8.59-16.85 4.55-19.17 9.64-24.68 4.87-35.49-5.3-12.28-15.04-25.1-40.79-21.82z"/><path id="ggldcB" d="M1242.2 180.98c-3.4-.32-7.1-1.06-10.07.2-.42.22-1.27-.84-1.27 1.6 0 1.37.85 2.96 2.01 3.7 1.91 1.17 3.6 1.06 5.51.43a5.53 5.53 0 0 0 3.29-4.03c.2-.74.42-1.27.52-1.9z"/><path id="ggldcC" d="M1185.83 144.75c-.21.52-1.17-.11-2.01-.32-4.03-1.06-10.6-12.5-3.29-14.83.85-5.51-4.55-11.66.32-14.73 4.87-3.07 7.95-2.43 9.85-2.33-2.65-3.07-2.12-9.21.64-11.12 2.75-1.9 6.57-3.6 11.76 1.48-1.91-6.99 6.56-12.92 11.65-10.38 5.08 2.44 3.6 6.36 6.25 7.3 1.8.64 4.34.96 4.34.96.21-2.01-.2-3.18 2.44-5.5 2.65-2.34 9.53-3.08 12.6 8.47 1.91-4.13 7.32-5.83 11.34-4.24 4.03 1.6 5.93 1.7 6.89 9.85.95 8.05 3.92 7 6.99 6.78 3.07-.2 7.94-.1 9.32 4.88 1.27 4.98-4.03 9.74-5.08 10.17 2.54.2 10.8 4.66 11.97 11.75 1.16 7.1-6.25 7.42-6.25 7.42 1.8 1.17 7.2 4.77 4.23 11.55-1.27 2.96-5.61 2.33-8.58 3.28-2.96 1.06-5.19 3.81-3.07 4.77 2.12.95 2.22 5.4 1.7 7.52-1.49 5.72-7.74 4.24-7.74 4.24 1.6 1.9 0 6.88-2.65 8.15-2.54 1.27-4.98 1.6-8.58.64-.74-.21-1.8-1.06-1.8.1.1 3.82-3.6 6.25-6.57 5.4-4.13-1.16-6.88-5.6-5.08-15.04 3.39-18.75-2.86-12.07-2.86-12.07s1.16-5.3-2.75-3.07c-9.22 5.19-4.67-2.44-4.67-6.25.11-8.9-6.35-12.72-6.67-18.97-.21-4.45-10.17-2.75-17.37-2.54-7.2.21-7.1-8.05-7.1-8.05s-7 6.14-10.17 14.73z"/><path id="ggldcD" d="M1136.79 313.38c-7.84 2.86-9.54 6.78-7.95 14.41 1.48 7.63 5.4 24.26 12.08 34.54 6.67 10.27 14.51 27.43 22.14 28.07 7.63.63 17.05.21 12.71-11.02s-3.39-30.08-8.26-39.83c-4.88-9.75-11.34-20.44-14.2-25.42-3.07-5.2-16.52-.75-16.52-.75z"/><path id="ggldcE" d="M1298.76 323.34c-11.55 8.16-29.13 36.87-34.43 39.73-5.3 2.86-4.13 20.13 10.7 15.78 14.83-4.34 58.05-39.93 61.23-45.55 3.18-5.61 1.9-18.22.95-20.97-.85-2.23-13.24-3.08-29.02 5.19a71.23 71.23 0 0 0-9.43 5.82z"/><path id="ggldcF" d="M1241.34 366.68c-4.66 1.38-23.41 17.16-24.68 18.75-1.27 1.59 3.7 6.99 10.6 6.57 2.75-.22 5.5-1.7 5.5-1.7s-2.12 5.4 7.73 1.7c4.66-1.7 14.1-7 20.13-7.63 11.97-1.27 26.6-8.58 28.18-12.82.85-2.33-13.14-13.35-24.68-8.16-2.97 1.17-21.4 2.86-22.78 3.29z"/><path id="ggldcG" d="M1229.69 167.31s10.27-7.42 15.25-2.86c3.08 2.86 1.8 9.64.53 12.5-1.37 3.07-6.03 7.42-10.59 7.2-2.75-.1-5.4-2.54-5.93-5.4-.74-4.98.74-11.44.74-11.44z"/><path id="ggldcH" d="M1207.43 166.2c-.91-.2-1.47-1.28-1.23-2.43.24-1.14 1.17-1.92 2.09-1.73.91.19 1.47 1.27 1.23 2.42-.24 1.14-1.17 1.92-2.09 1.73z"/><path id="ggldcI" d="M1167.3 382.88c-5.2 3.71-6.57 4.24-6.04 7 .53 2.75.21 13.55-.85 18.32s13.88 16.74 17.8 16.63c3.92-.2 19.5 4.66 20.34 1.06.85-3.6-9.32-7.52-13.24-13.24-3.4-4.98-4.98-8.37-2.44-10.7 2.54-2.33 4.98 10.49 6.15 13.35.42 1.06 3.07 2.75 4.55 2.33 2.76-.85 3.28-7.84-.1-14.62-3.4-6.78-2.76-15.04-12.5-18.43-9.75-3.4-13.67-1.7-13.67-1.7z"/><path id="ggldcJ" d="M1194.73 430.76l-3.28-2.54c-.1 0-.1-.1-.1-.21l-18.12-48.3v-.22c.1-.42.21-1.38 1.7-2.01 1.37-.53 2.22 0 2.64.21.1 0 .22.1.22.21l18.22 48.3v.22l-.53 4.03c0 .42-.43.52-.75.31z"/><path id="ggldcK" d="M1161.26 389.77c.53 2.65.21 13.56-.85 18.33-1.06 4.76 13.88 16.73 17.8 16.63 3.92-.21 19.5 4.66 20.34 1.06.85-3.6-9.32-7.52-13.24-13.24-3.4-4.88-24.05-22.78-24.05-22.78z"/><path id="ggldcL" d="M1215.28 157.67c-.31 0-.53-.11-.74-.43-1.7-3.18-5.4-2.54-5.5-2.44-.43.11-.85-.2-.96-.63-.1-.42.21-.85.64-.95 1.7-.32 5.4-.11 7.2 3.28.21.42.1.85-.32 1.06 0 0-.21.1-.32.1z"/><path id="ggldcM" d="M1194.2 188.07c-4.66 0-6.56-2.44-6.67-2.65-.21-.32-.21-.85.21-1.06.32-.21.85-.21 1.06.21.1.21 2.97 3.7 10.91.95.43-.1.85.11 1.06.53.1.43-.1.85-.53 1.06-2.33.74-4.34.96-6.04.96z"/><path id="ggldcN" d="M1235.09 177.37c-1.38 0-2.44-1.27-2.65-1.48-.32-.32-.21-.85.1-1.16.33-.32.86-.22 1.17.1.32.43 1.06.95 1.49.85.1 0 .2 0 .42-.32.21-.32-.21-1.06-.42-1.7a5.32 5.32 0 0 1-.53-1.37 3.78 3.78 0 0 1 1.37-3.81c1.38-1.06 3.18-1.17 5.09-.22.42.22.53.64.32 1.06-.22.43-.64.53-1.06.32-1.27-.63-2.55-.63-3.4 0a2.2 2.2 0 0 0-.73 2.23c0 .2.2.63.42.95.42.95 1.06 2.22.42 3.28a2.6 2.6 0 0 1-1.59 1.06c-.31.21-.42.21-.42.21z"/><path id="ggldcO" d="M1187.1 159.5c-.91-.2-1.47-1.28-1.23-2.43.24-1.14 1.17-1.92 2.09-1.73.91.19 1.47 1.27 1.23 2.42-.24 1.14-1.17 1.92-2.09 1.73z"/><path id="ggldcP" d="M1192.61 151.95a.8.8 0 0 1-.74-.53c-1.06-2.97-3.6-2.44-3.92-2.33-.42.1-.85-.1-.95-.53-.1-.42.1-.85.53-.95a5.08 5.08 0 0 1 5.82 3.28 1 1 0 0 1-.42 1.06h-.32z"/><path id="ggldcQ" d="M1189.33 178.64c-2.23 0-3.81-.96-4.34-2.65-.53-1.7.2-4.13 3.39-5.4 2.11-.85 2.54-3.4 2.54-3.4.1-.42.53-.74.95-.63.43.1.74.53.64.95 0 .11-.64 3.4-3.6 4.56-2.23.85-2.86 2.44-2.55 3.39.53 1.59 2.65 1.59 3.5 1.48.42 0 .85.32.85.74 0 .43-.32.85-.74.85-.22.1-.43.1-.64.1z"/><path id="ggldcR" d="M1217.71 388.07c-.2 0-.52-.1-.63-.32-.21-.32-.21-.85.21-1.06 6.46-4.87 27.65-18.22 27.86-18.43.43-.21.85-.1 1.06.21.21.32.1.85-.21 1.06-.21.1-21.4 13.56-27.76 18.33-.2.21-.31.21-.53.21z"/><path id="ggldcS" d="M1220.05 389.76c-.32 0-.53-.1-.74-.42-.22-.42-.11-.85.31-1.06.64-.32 14.73-8.16 17.17-8.8 5.4-1.48 11.33-3.49 12.28-4.44a.83.83 0 0 1 1.17 0c.32.32.32.85 0 1.16-1.59 1.6-10.38 4.14-13.03 4.77-1.9.53-12.82 6.46-16.84 8.69-.11.1-.22.1-.32.1z"/><path id="ggldcT" d="M1232.76 391.04c-.2 0-.52-.1-.63-.32-.21-.32-.21-.85.21-1.06.32-.21 8.26-5.72 11.02-6.78a86.1 86.1 0 0 1 4.66-1.48c2.33-.64 4.98-1.48 5.93-2.01.43-.22.85-.11 1.06.31.21.43.1.85-.32 1.06-1.16.64-3.6 1.38-6.35 2.23-1.8.53-3.4 1.06-4.56 1.48-2.54.95-10.6 6.57-10.7 6.67 0-.2-.1-.1-.32-.1z"/><path id="ggldcU" d="M1308.19 318.37a.8.8 0 0 1-.53-.22.83.83 0 0 1 0-1.16c4.87-4.56 13.13-6.04 13.45-6.04.43-.1.85.21.96.64.1.42-.22.84-.64.95-.1 0-8.16 1.48-12.6 5.61-.32.11-.54.22-.64.22z"/><path id="ggldcV" d="M1190.92 427.8h-.32c-.21-.1-5.3-2.01-7.3-3.29-.54-.31-2.13-1.37-9.75-15.14-.22-.43-.11-.85.31-1.06.43-.22.85-.11 1.06.31 6.89 12.5 8.8 14.3 9.22 14.52 1.9 1.16 7 3.07 7 3.07.41.1.63.63.41 1.06 0 .32-.31.53-.63.53z"/><path id="ggldcW" d="M1175.67 424.83c-.1 0-.32 0-.43-.1-.2-.1-.84-.53-6.56-11.66-.22-.42 0-.84.31-1.05.43-.22.85 0 1.06.31 2.54 4.88 5.51 10.38 6.04 11.02.32.21.42.64.21 1.06-.1.32-.42.42-.63.42z"/><path id="ggldcX" d="M1311.9 451.42s-100.65 12.5-104.88 13.14c-4.24.63-4.45 4.13 1.59 8.47 5.93 4.34 45.23 28.7 47.77 30.3 2.54 1.48 103.6-20.66 103.6-20.66z"/><path id="ggldcY" d="M1285.1 459.37s-33.7 4.77-35.18 5.08c-1.38.22-1.48 1.28.64 2.44a557.44 557.44 0 0 0 16.42 8.05c.95.43 34.64-7.2 34.64-7.2z"/><path id="ggldcZ" d="M1291.02 474.62s-49.79 6.46-51.8 6.78c-.63.1-1.16.42-1.27.85 0 .2.1.53.64.84 2.96 1.7 23.4 13.14 24.57 13.78 1.17.63 48.84-10.5 48.84-10.5z"/><path id="ggldda" d="M1023.97 418.2l7.94-.74s-.74 2.01-.2 2.75c.42.75.63 1.28.42 1.6-.22.42-1.06 1.48-.64 2.32.42.85.85 1.17.64 2.23-.22 1.06-.96 1.48-.64 2.33.32.85-53.07 29.55-54.56 30.19-1.37.64-60.06-12.92-60.8-14.94-.64-2 .1-1.06.1-2.33s-.42.53 0-1.27c.43-1.8.74-1.27.53-2.54-.2-1.27.1-3.4.1-3.4l19.4-.41z"/><path id="gglddb" d="M971.42 406.55l-54.45 27.86 1.9.53c9.75 2.54 52.87 13.77 54.88 13.45 5.2-.84 57.1-30.08 58.26-30.82 1.06-.85-60.59-11.02-60.59-11.02z"/><path id="gglddc" d="M918.25 445.74a3.61 3.61 0 0 1-2.97-1.38c-1.27-1.37-1.7-3.7-1.27-6.04.42-2.22 1.38-3.8 2.86-4.76a5.95 5.95 0 0 1 4.87-.74c.43.1.64.53.53.95-.1.42-.53.63-.95.53 0 0-2.01-.53-3.7.53-1.07.74-1.81 1.9-2.13 3.7-.32 1.91 0 3.71.96 4.77a2.3 2.3 0 0 0 1.9.85c.43 0 .85.32.85.74 0 .43-.32.85-.74.85h-.21z"/><path id="gglddd" d="M922.27 447.12a3.61 3.61 0 0 1-2.97-1.38c-1.27-1.37-1.7-3.7-1.27-6.04.42-2.22 1.38-3.8 2.86-4.76a5.95 5.95 0 0 1 4.87-.74c.43.1.64.53.53.95-.1.42-.53.63-.95.53 0 0-2.01-.53-3.7.53-1.07.74-1.81 1.9-2.13 3.7-.32 1.91 0 3.71.96 4.77a2.3 2.3 0 0 0 1.9.85c.43 0 .85.32.85.74 0 .43-.32.85-.74.85h-.21z"/><path id="ggldde" d="M926.4 448.39a3.61 3.61 0 0 1-2.97-1.38c-1.27-1.37-1.7-3.7-1.27-6.04.42-2.22 1.38-3.8 2.86-4.76a5.95 5.95 0 0 1 4.87-.74c.43.1.64.53.53.95-.1.42-.53.63-.95.53 0 0-2.01-.53-3.7.53-1.07.74-1.81 1.9-2.13 3.7-.32 1.91 0 3.71.96 4.77a2.3 2.3 0 0 0 1.9.85c.43 0 .85.32.85.74 0 .43-.32.85-.74.85h-.21z"/><path id="gglddf" d="M930.43 449.88a3.61 3.61 0 0 1-2.97-1.38c-1.27-1.37-1.7-3.7-1.27-6.04.42-2.22 1.38-3.8 2.86-4.76a5.95 5.95 0 0 1 4.87-.74c.43.1.64.53.53.95-.1.42-.53.63-.95.53 0 0-2.01-.53-3.7.53-1.07.74-1.81 1.9-2.13 3.7-.32 1.91 0 3.71.96 4.77a2.3 2.3 0 0 0 1.9.85c.43 0 .85.32.85.74 0 .43-.32.85-.74.85h-.21z"/><path id="gglddg" d="M934.46 450.4a3.61 3.61 0 0 1-2.97-1.38c-1.27-1.37-1.7-3.7-1.27-6.04.42-2.22 1.38-3.8 2.86-4.76a5.95 5.95 0 0 1 4.87-.74c.43.1.64.53.53.95-.1.42-.53.63-.95.53 0 0-2.01-.53-3.7.53-1.07.74-1.81 1.9-2.13 3.7-.32 1.91 0 3.71.96 4.77a2.3 2.3 0 0 0 1.9.85c.43 0 .85.32.85.74 0 .43-.32.85-.74.85h-.21z"/><path id="gglddh" d="M939.12 451.89a3.61 3.61 0 0 1-2.97-1.38c-1.27-1.37-1.7-3.7-1.27-6.04.42-2.22 1.38-3.8 2.86-4.76a5.95 5.95 0 0 1 4.87-.74c.43.1.64.53.53.95-.1.42-.53.63-.95.53 0 0-2.01-.53-3.7.53-1.07.74-1.81 1.9-2.13 3.7-.32 1.91 0 3.71.96 4.77a2.3 2.3 0 0 0 1.9.85c.43 0 .85.32.85.74 0 .43-.32.85-.74.85h-.21z"/><path id="gglddi" d="M943.88 452.95c-1.06 0-1.9-.42-2.75-1.06-1.38-1.27-2.01-3.5-1.9-5.93.2-2.23.94-3.92 2.32-4.98 2.12-1.7 4.66-1.27 4.77-1.27.42.1.74.42.63.95-.1.42-.42.74-.95.64 0 0-2.12-.32-3.6.95-1.06.85-1.59 2.12-1.7 3.92-.1 1.9.43 3.7 1.38 4.66.53.53 1.27.74 2.01.64.43-.11.85.2.96.63.1.43-.21.85-.64.85h-.53z"/><path id="gglddj" d="M948.55 454.53a3.85 3.85 0 0 1-2.76-1.16c-1.38-1.27-2.01-3.5-1.8-5.93.21-2.23 1.06-3.92 2.44-4.98 2.12-1.6 4.66-1.17 4.87-1.17.42.1.74.53.63.95-.1.43-.52.75-.95.64 0 0-2.12-.32-3.6.85-1.06.74-1.59 2.12-1.8 3.92-.21 1.9.32 3.7 1.27 4.66.53.53 1.27.74 2.01.63.43-.1.85.22.85.64.1.42-.21.85-.64.85-.2.1-.42.1-.52.1z"/><path id="gglddk" d="M952.78 455.38a3.85 3.85 0 0 1-2.76-1.16c-1.38-1.27-2.01-3.5-1.8-5.93.21-2.23 1.06-3.92 2.44-4.98 2.12-1.6 4.66-1.17 4.87-1.17.42.1.74.53.63.95-.1.43-.52.75-.95.64 0 0-2.01-.32-3.6.85-1.06.74-1.59 2.12-1.8 3.92-.21 1.9.32 3.7 1.27 4.66.53.53 1.27.74 2.01.63.43-.1.85.22.85.64.1.42-.21.85-.64.85-.2.1-.42.1-.52.1z"/><path id="gglddl" d="M1259.67 495.28c-.1 0-.21 0-.42-.1-.53-.32-3.18-1.91-3.29-2.02-.42-.2-.53-.74-.31-1.06.2-.42.74-.53 1.06-.31 0 0 2.75 1.7 3.28 1.9.42.21.53.74.32 1.06-.1.43-.43.53-.64.53z"/><path id="gglddm" d="M956.92 456.02a3.85 3.85 0 0 1-2.76-1.16c-1.38-1.27-2.01-3.5-1.8-5.93.21-2.23 1.06-3.92 2.44-4.98 2.12-1.6 4.66-1.17 4.87-1.17.42.1.74.53.63.95-.1.43-.52.75-.95.64 0 0-2.12-.32-3.6.85-1.06.74-1.59 2.12-1.8 3.92-.21 1.9.32 3.7 1.27 4.66.53.53 1.27.74 2.01.63.43 0 .85.22.85.64.1.42-.21.85-.64.85-.2.1-.42.1-.52.1z"/><path id="gglddn" d="M961.68 457.3a3.85 3.85 0 0 1-2.76-1.17c-1.38-1.27-2.01-3.5-1.8-5.93.21-2.23 1.06-3.92 2.44-4.98 2.12-1.6 4.66-1.17 4.87-1.17.42.1.74.53.63.95-.1.43-.52.75-.95.64 0 0-2.12-.32-3.6.85-1.06.74-1.59 2.12-1.8 3.92-.21 1.9.32 3.7 1.27 4.66.53.53 1.27.74 2.01.63.43-.1.85.22.85.64.1.42-.21.85-.64.85-.2.1-.42.1-.52.1z"/><path id="gglddo" d="M965.92 458.13a3.85 3.85 0 0 1-2.76-1.16c-1.38-1.27-2.01-3.5-1.8-5.93.21-2.23 1.06-3.92 2.44-4.98 2.12-1.6 4.66-1.17 4.87-1.17.42.1.74.53.63.95-.1.43-.52.75-.95.64 0 0-2.12-.32-3.6.85-1.06.74-1.59 2.12-1.8 3.92-.21 1.9.32 3.7 1.27 4.66.53.53 1.27.74 2.01.63.43-.1.85.22.85.64.1.42-.21.85-.64.85-.2.1-.42.1-.52.1z"/><path id="gglddp" d="M970.05 459.3a3.85 3.85 0 0 1-2.76-1.16c-1.38-1.27-2.01-3.5-1.8-5.93.21-2.23 1.06-3.92 2.44-4.98 2.12-1.6 4.66-1.17 4.87-1.17.42.1.74.53.63.95-.1.43-.52.75-.95.64 0 0-2.01-.32-3.6.85-1.06.74-1.59 2.12-1.8 3.92-.21 1.9.32 3.7 1.27 4.66.53.53 1.27.74 2.01.63.43-.1.85.22.85.64.1.42-.21.85-.64.85-.2 0-.42.1-.52.1z"/><path id="gglddq" d="M1287.75 398.13s107.1-11.33 111.97-11.54c4.87-.22 6.67.74 4.98 8.47-1.7 7.73-23.3 76.8-24.8 81.68-1.58 5.5-4.44 9.42-9.1 9.95-7.84 1.06-107 16.85-111.66 17.27-2.11.21-4.97.21-1.58-10.8 3.5-10.92 20.55-82.95 21.5-87.08.95-3.92 3.28-8.16 8.69-7.95z"/><path id="gglddr" d="M1339.12 436.16c5.72-.95 9.96 4.98 8.27 9.32-1.7 4.24-4.66 7.95-8.8 8.27-3.39.31-10.38-.74-9.53-7.74.64-5.08 5.2-8.9 10.06-9.85z"/><path id="ggldds" d="M1253 491.78c-.11 0-.22 0-.43-.1-.53-.32-3.18-1.91-3.29-2.02-.42-.2-.53-.74-.31-1.06.2-.42.74-.53 1.06-.31.95.53 2.86 1.7 3.28 1.9.42.21.53.74.32 1.06 0 .43-.32.53-.64.53z"/><path id="gglddt" d="M1247.28 488.6c-.1 0-.21 0-.43-.1l-3.28-2.01.85-1.38s2.75 1.7 3.28 1.9c.43.22.53.75.32 1.07-.21.42-.42.53-.74.53z"/><path id="gglddu" d="M1241.45 485c-.1 0-.21 0-.42-.1-.53-.32-3.18-1.91-3.29-2.02-.42-.2-.53-.74-.31-1.06.2-.42.74-.53 1.06-.31 0 0 2.75 1.7 3.28 1.9.42.21.53.74.32 1.06-.1.43-.32.53-.64.53z"/><path id="gglddv" d="M1057.34 447.03c-1.17-.21-10.7 34.85-10.81 35.38-.1.64 57.1 2.33 58.48 2.33 1.37 0-4.24-36.86-4.88-36.97-.63-.1-41.95-.53-42.8-.74z"/><path id="gglddw" d="M1059.46 454.13c-.85-.1-7.52 24.26-7.63 24.68-.1.43 47.03 2.23 47.99 2.23.95 0-2.23-26.38-2.65-26.49-.42-.2-36.97-.31-37.71-.42z"/><path id="gglddx" d="M1046.85 438.24c-1.16-.21-14.2 34.54-14.3 35.07-.1.63 55.72 2.33 57.1 2.33 1.38 0-.85-36.55-1.48-36.76-.64-.1-40.37-.53-41.32-.64z"/><path id="gglddy" d="M1048.54 445.23c-.84-.1-8.9 24.15-9 24.47-.1.42 44.17 1.38 45.13 1.38.95 0 .1-25.32-.32-25.43-.32-.1-35.17-.31-35.8-.42z"/><path id="gglddz" d="M1187 291.89c.74-7 5.5-11.13 11.12-10.38 4.66.53 6.88 3.92 7.94 6.99.11.31-.1.63-.42.84-1.48.64-2.33 1.06-3.81 1.7-.32.21-.85 0-.96-.42-.53-1.6-1.8-2.86-3.28-3.08-2.54-.31-4.56 2.02-4.87 5.2-.32 3.17 1.37 5.93 4.02 6.24 1.6.22 2.97-.84 3.82-2.22a.69.69 0 0 1 .95-.21c1.38.95 2.22 1.48 3.6 2.43.32.22.42.53.21.85-1.37 2.86-4.13 5.83-9.1 5.2-5.83-.54-9.86-6.15-9.22-13.14z"/><path id="gglddA" d="M1225.24 294.74c-1.27 4.24-2.12 7-3.7 11.66 0 .1-.22.2-.32.2-.75 0-1.28 0-2.12-.1-.1 0-.32-.1-.32-.31-1.27-4.88-2.01-7.63-3.07-11.98-.1-.42-.74-.31-.74.11-.11 4.13-.22 6.89-.43 11.55 0 .21-.21.32-.42.32-2.01-.11-3.18-.22-5.2-.32-.2 0-.31-.21-.31-.43l1.06-22.24c0-.21.21-.32.42-.32 2.76.21 4.24.32 7.1.42.21 0 .32.11.32.32.95 4.13 1.59 6.46 2.54 10.38.1.32.64.32.74 0 1.17-3.81 1.9-6.04 3.07-10.06 0-.1.22-.32.32-.32 2.76.1 4.35.1 7.1.1.21 0 .32.22.32.33v22.24c0 .21-.21.32-.32.32h-5.2c-.2 0-.3-.21-.3-.42 0-4.67.1-7.42.1-11.55.1-.21-.53-.32-.64.1z"/><path id="gglddB" d="M1241.24 297.4c-2.86-5.2-4.34-7.95-6.99-13.14-.1-.21 0-.53.32-.53 2.12 0 3.28-.1 5.5-.1.11 0 .22.1.32.2 1.28 2.65 2.02 4.24 3.29 6.78.1.22.53.22.63 0 1.06-2.65 1.7-4.23 2.76-7.1 0-.1.21-.2.32-.2 2.22-.11 3.39-.22 5.5-.43.22 0 .43.21.32.42-2.33 5.4-3.6 8.27-6.04 13.78v.1c.11 3.5.22 5.3.32 8.69 0 .21-.1.32-.32.32-2 .1-3.17.2-5.19.2-.2 0-.31-.1-.31-.31-.11-3.39-.11-5.2-.22-8.69-.2.1-.2.1-.2 0z"/><path id="gglddC" d="M1264.75 298.88c-1.16.42-1.05.32-2.11.74.1 1.9.2 3.18.42 5.2 0 .1-.1.2-.21.2-2.12.22-3.29.32-5.4.53-.11 0-.22-.1-.32-.2-.53-8.9-.85-13.46-1.38-22.47 0-.1.1-.2.21-.2l5.09-.54c.1 0 .2.1.31.21.22 2.97.32 4.67.53 7.42 0 .21.32.32.43.1 1.48-3.07 2.33-4.87 3.7-8.26 0-.1.11-.1.22-.1 2.43-.32 3.81-.53 6.14-.85.21 0 .32.21.21.32-2.22 4.34-3.39 6.67-5.72 11.01v.22c3.29 4.34 4.98 6.56 8.27 10.7.1.1 0 .31-.11.42-2.54.42-3.92.64-6.57.95-.1 0-.21 0-.21-.1-1.38-2.12-2.33-3.5-3.5-5.3z"/><path id="gglddD" d="M992.3 431.66s.1 0 0 0c.2.1.31.1.31.2.21 1.28-1.59 2.34-4.13 2.34-1.7 0-6.68-1.06-8.69-1.9-.1-.12-.21-.12-.21-.22h.42c1.8.74 6.47 1.8 8.05 1.7 2.23 0 3.82-.85 3.92-2.02-1.7 0-4.02-.42-6.03-1.06-.22-.1-.22-.1-.22-.21h.43c2.01.74 4.34 1.06 5.93.95.1.1.1.22.21.22z"/><path id="gglddE" d="M967.08 421.49c.1 0 .1 0 .21.1.32.1.43.32.53.43.21.53 1.7 1.7 2.54 2.22.11.1.11.1 0 .1-.1 0-.31 0-.42-.1-.85-.53-2.44-1.8-2.75-2.33 0 0-.11-.1-.11-.21h-.42c-.85.21-1.7.42-2.33.74-.32.1-.53.32-.75.42-.84.75-.63 1.8.53 2.97.11.1 0 .1-.1.1s-.32-.1-.43-.1c-1.27-1.27-1.48-2.33-.63-3.07.21-.21.42-.32.74-.43.64-.31 1.48-.53 2.33-.74.42-.2.74-.1 1.06-.1z"/><path id="gglddF" d="M973.65 430.17c1.59.43 2.96.53 3.81.32.53-.21.95-.64.53-1.16l-.32-.32a11 11 0 0 0-4.55-1.49c-1.6-.1-3.18 0-2.76.85.32.64 1.7 1.38 3.29 1.8zm1.37-2.54c1.17.32 2.44.85 3.08 1.38.2.1.31.32.42.42.42.64 0 1.17-.63 1.38-.85.32-2.44.21-4.24-.32-1.8-.53-3.4-1.48-3.82-2.12-.53-1.06 1.28-1.16 3.08-1.06.53-.1 1.27.1 2.11.32z"/><path id="gglddG" d="M967.5 430.17c-.85-.32-1.9-.42-2.33-.21-.42.21 0 .74.85 1.06.84.32 2 .53 2.43.32.2-.11.2-.32 0-.53a3.69 3.69 0 0 0-.95-.64zm-.42-.32c.21.1.42.1.74.21.1 0 .1 0 .1.11.54.21.96.53 1.17.74.21.32.21.53-.1.64-.53.31-2.12.1-3.29-.43-1.16-.53-1.7-1.16-1.16-1.48.53-.21 1.58-.1 2.54.21z"/><path id="gglddH" d="M953.2 432.94c2.33.63 4.66.84 6.46.95 1.6.1 3.18.1 4.88.1 3.39 0 6.56-.31 9.32-.74 2.11-.31 3.91-.84 5.71-1.27.64-.21 1.28-.32 2.02-.53l3.39-.85h.31c.22 0 .64-.1.64-.1h.1c.22 0 .43-.32-1.37-1.7-.85-.64-1.9-1.27-3.18-1.9a28.21 28.21 0 0 0-7.41-2.24c-1.06-.1-2.97-.42-3.6-.31a56.1 56.1 0 0 0-7.52 2.22c-4.24 1.7-7.52 3.82-9.75 6.37zm23.95-7.85c1.59.42 3.07 1.06 4.55 1.7 1.27.63 2.44 1.26 3.4 2 1.47 1.17 1.9 1.8 1.37 1.91-.1.1-.32.1-.74.21h-.32l-3.4.85c-.63.21-1.26.32-2 .53-1.8.42-3.71.95-5.72 1.27-2.86.43-6.04.64-9.43.74-1.7 0-3.29 0-4.88-.1-2-.1-4.55-.32-7.2-1.06-.1 0-.1-.1-.21-.1-.1 0-.1-.11 0-.11 2.22-2.65 5.5-4.88 9.75-6.47 1.9-.74 4.23-1.48 7.52-2.22.74-.21 2.75.1 3.92.32 1.06 0 2.22.21 3.39.53z"/><path id="gglddI" d="M1000.98 420h.1c.11.11.22.11.11.11-1.58 1.59-3.91 2.54-6.46 3.7-.74.33-1.48.64-2.33.96 2.44.64 6.36.85 7.74.64.1 0 .2 0 .31.1.1.1.22.1.1.21-.94 1.17-5.18 1.8-9.2 2.34-2.55.31-4.88.63-6.15 1.16-.1 0-.32 0-.43-.1-.1-.11-.2-.11-.1-.22 1.38-.42 3.7-.74 6.25-1.16 3.39-.53 7.2-1.06 8.69-1.9-2.02.1-5.51-.22-7.74-.86-.1 0-.2-.1-.2-.1v-.1c.84-.43 1.69-.75 2.53-1.07 2.44-1.06 4.66-1.9 6.15-3.39-2.02.1-4.35.1-6.46.1-3.82 0-7.84 0-10.5.43h-.31c-.1 0-.21-.1-.21-.1-.43-.53-.21-1.17-.1-1.7.1-.42.2-.85.1-1.27-.1 0-.1 0-.21.1-.11 0-.11 0-.22.11-2.11.85-3.92 1.9-5.3 2.97-1.48 1.16-2.85 2.33-3.06 3.81 0 .1-.11.1-.32 0-.21 0-.32-.1-.32-.21.21-1.48 1.59-2.75 3.07-3.92a22.45 22.45 0 0 1 5.3-2.97s.1 0 .21-.1c.1 0 .53-.1.53-.21 0-.11.1-.11.21-.11.1 0 .32.1.43.21.42.53.2 1.17.1 1.7-.1.42-.21.95-.1 1.37 2.75-.42 6.56-.42 10.17-.42 2.43 0 5.08 0 7.2-.1h.42z"/><path id="gglddJ" d="M1169.52 288.28s-6.89-6.88-6.14-8.26c.74-1.27 8.58 6.78 9.21 5.93.64-.85.21-5.61-.42-7.94-.74-2.86 3.07 1.06 2.33 5.4-.74 4.34-.95 8.47-1.17 9.32-.2.95-1.16-2.12-11.86-5.5-10.7-3.4 8.05 1.05 8.05 1.05z"/></defs><g><g clip-path="url(#clip-80A2C241-65F7-4F02-BE2E-1CDB62B346A0)" transform="translate(-779 -69)"><g><g><g><g><use fill="#a5b7c6" xlink:href="#gglda"/></g></g><g><g><use fill="#a5b7c6" xlink:href="#ggldb"/></g></g></g><g><g><use fill="#e3e9ed" xlink:href="#ggldc"/></g></g><g><g><use fill="#e3e9ed" xlink:href="#ggldd"/></g></g><g><g><use fill="#cfd9e0" xlink:href="#gglde"/></g></g><g><g><use fill="#cfd9e0" xlink:href="#ggldf"/></g></g><g><g><use fill="#bac8d3" xlink:href="#ggldg"/></g></g><g><g><use fill="#cfd9e0" xlink:href="#ggldh"/></g></g><g><g><use fill="#bac8d3" xlink:href="#ggldi"/></g></g><g><g><use fill="#bac8d3" xlink:href="#ggldj"/></g></g><g><g><use fill="#a5b7c6" xlink:href="#ggldk"/></g></g><g><g><use fill="#cfd9e0" xlink:href="#ggldl"/></g></g><g><g><use fill="#bac8d3" xlink:href="#ggldm"/></g></g><g><g><use fill="#e3e9ed" xlink:href="#ggldn"/></g></g><g><g><use fill="#cfd9e0" xlink:href="#ggldo"/></g></g><g><g><use fill="#e3e9ed" xlink:href="#ggldp"/></g></g><g><g><use fill="#cfd9e0" xlink:href="#ggldq"/></g></g><g><g><use fill="#e3e9ed" xlink:href="#ggldr"/></g></g><g><g><use fill="#cfd9e0" xlink:href="#gglds"/></g></g><g><g><g><use fill="#bac8d3" xlink:href="#ggldt"/></g></g><g><g><use fill="#a5b7c6" xlink:href="#ggldu"/></g></g><g><g><use fill="#a5b7c6" xlink:href="#ggldv"/></g></g><g><g><use fill="#e3e9ed" xlink:href="#ggldw"/></g></g><g><g><use fill="#cfd9e0" xlink:href="#ggldx"/></g></g></g><g><g><use fill="#cfd9e0" xlink:href="#ggldy"/></g></g><g><g><use fill="#bac8d3" xlink:href="#ggldz"/></g></g><g><g><use fill="#e3e9ed" xlink:href="#ggldA"/></g></g><g><g><use fill="#cfd9e0" xlink:href="#ggldB"/></g></g><g><g><use fill="#e3e9ed" xlink:href="#ggldC"/></g></g><g><g><use fill="#cfd9e0" xlink:href="#ggldD"/></g></g><g><g><use fill="#cfd9e0" xlink:href="#ggldE"/></g></g><g><g><use fill="#bac8d3" xlink:href="#ggldF"/></g></g><g><g><g><use fill="#e3e9ed" xlink:href="#ggldG"/></g></g><g><g><use fill="#cfd9e0" xlink:href="#ggldH"/></g></g><g><g><use fill="#cfd9e0" xlink:href="#ggldI"/></g></g><g><g><use fill="#cfd9e0" xlink:href="#ggldJ"/></g></g></g><g><g><use fill="#5f7d95" xlink:href="#ggldK"/></g></g><g><g><use fill="#5f7d95" xlink:href="#ggldL"/></g></g></g><g><g><g><use fill="#bac8d3" xlink:href="#ggldM"/></g></g><g><g><use fill="#cfd9e0" xlink:href="#ggldN"/></g></g><g><g><use fill="#bac8d3" xlink:href="#ggldO"/></g></g><g><g><use fill="#cfd9e0" xlink:href="#ggldP"/></g></g><g><g><use fill="#cfd9e0" xlink:href="#ggldQ"/></g></g><g><g><use fill="#a5b7c6" xlink:href="#ggldR"/></g></g><g><g><use fill="#a5b7c6" xlink:href="#ggldS"/></g></g><g><g><use fill="#e3e9ed" xlink:href="#ggldT"/></g></g><g><g><use fill="#cfd9e0" xlink:href="#ggldU"/></g></g><g><g><use fill="#cfd9e0" xlink:href="#ggldV"/></g></g><g><g><use fill="#cfd9e0" xlink:href="#ggldW"/></g></g><g><g><use fill="#cfd9e0" xlink:href="#ggldX"/></g></g><g><g><use fill="#cfd9e0" xlink:href="#ggldY"/></g></g><g><g><use fill="#cfd9e0" xlink:href="#ggldZ"/></g></g><g><g><use fill="#cfd9e0" xlink:href="#ggldaa"/></g></g><g><g><use fill="#cfd9e0" xlink:href="#ggldab"/></g></g><g><g><use fill="#cfd9e0" xlink:href="#ggldac"/></g></g><g><g><use fill="#cfd9e0" xlink:href="#ggldad"/></g></g><g><g><use fill="#cfd9e0" xlink:href="#ggldae"/></g></g><g><g><use fill="#cfd9e0" xlink:href="#ggldaf"/></g></g><g><g><use fill="#cfd9e0" xlink:href="#ggldag"/></g></g><g><g><use fill="#cfd9e0" xlink:href="#ggldah"/></g></g><g><g><use fill="#a5b7c6" xlink:href="#ggldai"/></g></g><g><g><g><use fill="#a5b7c6" xlink:href="#ggldaj"/></g></g><g><g><use fill="#bac8d3" xlink:href="#ggldak"/></g></g><g><g><use fill="#e3e9ed" xlink:href="#ggldal"/></g></g></g><g><g><use fill="#e3e9ed" xlink:href="#ggldam"/></g></g><g><g><use fill="#e3e9ed" xlink:href="#ggldan"/></g></g><g><g><use fill="#e3e9ed" xlink:href="#ggldao"/></g></g><g><g><g><use fill="#bac8d3" xlink:href="#ggldap"/></g></g><g><g><use fill="#bac8d3" xlink:href="#ggldaq"/></g></g><g><g><use fill="#bac8d3" xlink:href="#ggldar"/></g></g><g><g><use fill="#bac8d3" xlink:href="#ggldas"/></g></g><g><g><use fill="#bac8d3" xlink:href="#ggldat"/></g></g><g><g><use fill="#bac8d3" xlink:href="#ggldau"/></g></g><g><g><use fill="#bac8d3" xlink:href="#ggldav"/></g></g><g><g><use fill="#bac8d3" xlink:href="#ggldaw"/></g></g><g><g><use fill="#bac8d3" xlink:href="#ggldax"/></g></g></g><g><g><use fill="#bac8d3" xlink:href="#gglday"/></g></g></g><g><g><use fill="#5eb2fc" xlink:href="#ggldaz"/></g><g><use fill="#2c8cf4" xlink:href="#ggldaA"/></g><g><use fill="#92cdfa" xlink:href="#ggldaB"/></g><g><use fill="#5eb2fc" xlink:href="#ggldaC"/></g><g><use fill="#c7ebff" xlink:href="#ggldaD"/></g><g><use fill="#92cdfa" xlink:href="#ggldaE"/></g><g><use fill="#5eb2fc" xlink:href="#ggldaF"/></g><g><use fill="#5eb2fc" xlink:href="#ggldaG"/></g><g><use fill="#92cdfa" xlink:href="#ggldaH"/></g><g><use fill="#92cdfa" xlink:href="#ggldaI"/></g><g><use fill="#92cdfa" xlink:href="#ggldaJ"/></g><g><use fill="#5eb2fc" xlink:href="#ggldaK"/></g><g><use fill="#5eb2fc" xlink:href="#ggldaL"/></g><g><g><use fill="#92cdfa" xlink:href="#ggldaM"/></g><g><use fill="#92cdfa" xlink:href="#ggldaN"/></g><g><use fill="#92cdfa" xlink:href="#ggldaO"/></g></g><g><use fill="#5eb2fc" xlink:href="#ggldaP"/></g></g><g><use fill="#e3e9ed" xlink:href="#ggldaQ"/></g><g><use fill="#cfd9e0" xlink:href="#ggldaR"/></g><g><use fill="#04458f" xlink:href="#ggldaS"/></g><g><use fill="#04458f" xlink:href="#ggldaT"/></g><g><use fill="#8080f1" xlink:href="#ggldaU"/></g><g><use fill="#8080f1" xlink:href="#ggldaV"/></g><g><use fill="#5f5ff6" xlink:href="#ggldaW"/></g><g><use fill="#8080f1" xlink:href="#ggldaX"/></g><g><use fill="#5f5ff6" xlink:href="#ggldaY"/></g><g><use fill="#5f5ff6" xlink:href="#ggldaZ"/></g><g><use fill="#92cdfa" xlink:href="#ggldba"/></g><g><use fill="#5eb2fc" xlink:href="#ggldbb"/></g><g><use fill="#fff" xlink:href="#ggldbc"/></g><g><use fill="#f8fafb" xlink:href="#ggldbd"/></g><g><use fill="#f8fafb" xlink:href="#ggldbe"/></g><g><use fill="#f8fafb" xlink:href="#ggldbf"/></g><g><use fill="#e3e9ed" xlink:href="#ggldbg"/></g><g><use fill="#f8fafb" xlink:href="#ggldbh"/></g><g><use fill="#f8fafb" xlink:href="#ggldbi"/></g><g><use fill="#143b63" xlink:href="#ggldbj"/></g><g><use fill="#194c80" xlink:href="#ggldbk"/></g><g><use fill="#5eb2fc" xlink:href="#ggldbl"/></g><g><use fill="#2c8cf4" xlink:href="#ggldbm"/></g><g><g><use fill="#92cdfa" xlink:href="#ggldbn"/></g><g><use fill="#5eb2fc" xlink:href="#ggldbo"/></g><g><use fill="#92cdfa" xlink:href="#ggldbp"/></g><g><use fill="#92cdfa" xlink:href="#ggldbq"/></g></g><g><g><use fill="#92cdfa" xlink:href="#ggldbr"/></g><g><use fill="#5eb2fc" xlink:href="#ggldbs"/></g><g><use fill="#92cdfa" xlink:href="#ggldbt"/></g><g><use fill="#92cdfa" xlink:href="#ggldbu"/></g><g><use fill="#5eb2fc" xlink:href="#ggldbv"/></g></g><g><g><g><use fill="#fcd250" xlink:href="#ggldbw"/></g><g><use fill="#fcd250" xlink:href="#ggldbx"/></g><g><use fill="#fcd250" xlink:href="#ggldby"/></g><g><use fill="#fcbd24" xlink:href="#ggldbz"/></g><g><use fill="#92cdfa" xlink:href="#ggldbA"/></g><g><use fill="#fcbd24" xlink:href="#ggldbB"/></g><g><use fill="#fcbd24" xlink:href="#ggldbC"/></g><g><use fill="#92cdfa" xlink:href="#ggldbD"/></g><g><use fill="#fcbd24" xlink:href="#ggldbE"/></g></g><g><use fill="#fcd250" xlink:href="#ggldbF"/></g><g><use fill="#fcd250" xlink:href="#ggldbG"/></g><g><use fill="#fcbd24" xlink:href="#ggldbH"/></g><g><use fill="#fcbd24" xlink:href="#ggldbI"/></g><g><use fill="#fcbd24" xlink:href="#ggldbJ"/></g><g><use fill="#fcbd24" xlink:href="#ggldbK"/></g><g><use fill="#fcbd24" xlink:href="#ggldbL"/></g><g><use fill="#fcd250" xlink:href="#ggldbM"/></g><g><use fill="#fcbd24" xlink:href="#ggldbN"/></g><g><use fill="#fcbd24" xlink:href="#ggldbO"/></g><g><use fill="#fcbd24" xlink:href="#ggldbP"/></g><g><use fill="#fcbd24" xlink:href="#ggldbQ"/></g><g><use fill="#fcd250" xlink:href="#ggldbR"/></g><g><use fill="#fcbd24" xlink:href="#ggldbS"/></g><g><use fill="#fcbd24" xlink:href="#ggldbT"/></g><g><use fill="#fcbd24" xlink:href="#ggldbU"/></g></g><g><g><use fill="#143b63" xlink:href="#ggldbV"/></g><g><use fill="#194c80" xlink:href="#ggldbW"/></g><g><use fill="#194c80" xlink:href="#ggldbX"/></g><g><use fill="#164372" xlink:href="#ggldbY"/></g><g><use fill="#194c80" xlink:href="#ggldbZ"/></g><g><use fill="#113255" xlink:href="#ggldca"/></g><g><use fill="#0b2239" xlink:href="#ggldcb"/></g><g><use fill="#1273eb" xlink:href="#ggldcc"/></g><g><use fill="#0161cd" xlink:href="#ggldcd"/></g></g><g><g><use fill="#0e2a47" xlink:href="#ggldce"/></g><g><use fill="#92cdfa" xlink:href="#ggldcf"/></g><g><use fill="#113255" xlink:href="#ggldcg"/></g><g><use fill="#113255" xlink:href="#ggldch"/></g><g><use fill="#1273eb" xlink:href="#ggldci"/></g><g><use fill="#0353a7" xlink:href="#ggldcj"/></g><g><use fill="#164372" xlink:href="#ggldck"/></g><g><use fill="#164372" xlink:href="#ggldcl"/></g><g><use fill="#113255" xlink:href="#ggldcm"/></g><g><use fill="#113255" xlink:href="#ggldcn"/></g><g><use fill="#164372" xlink:href="#ggldco"/></g><g><use fill="#164372" xlink:href="#ggldcp"/></g><g><use fill="#164372" xlink:href="#ggldcq"/></g><g><use fill="#164372" xlink:href="#ggldcr"/></g><g><use fill="#164372" xlink:href="#ggldcs"/></g><g><use fill="#164372" xlink:href="#ggldct"/></g></g><g><use fill="#164372" xlink:href="#ggldcu"/></g><g><use fill="#164372" xlink:href="#ggldcv"/></g><g><use fill="#164372" xlink:href="#ggldcw"/></g><g><use fill="#164372" xlink:href="#ggldcx"/></g><g><use fill="#5eb2fc" xlink:href="#ggldcy"/></g><g><use fill="#0b2239" xlink:href="#ggldcz"/></g><g><use fill="#8080f1" xlink:href="#ggldcA"/></g><g><use fill="#5f5ff6" xlink:href="#ggldcB"/></g><g><use fill="#202095" xlink:href="#ggldcC"/></g><g><use fill="#8080f1" xlink:href="#ggldcD"/></g><g><use fill="#8080f1" xlink:href="#ggldcE"/></g><g><use fill="#8080f1" xlink:href="#ggldcF"/></g><g><use fill="#8080f1" xlink:href="#ggldcG"/></g><g><use fill="#202095" xlink:href="#ggldcH"/></g><g><use fill="#8080f1" xlink:href="#ggldcI"/></g><g><use fill="#0e2a47" xlink:href="#ggldcJ"/></g><g><use fill="#8080f1" xlink:href="#ggldcK"/></g><g><use fill="#2d2db0" xlink:href="#ggldcL"/></g><g><use fill="#2d2db0" xlink:href="#ggldcM"/></g><g><use fill="#2d2db0" xlink:href="#ggldcN"/></g><g><use fill="#202095" xlink:href="#ggldcO"/></g><g><use fill="#2d2db0" xlink:href="#ggldcP"/></g><g><use fill="#4949e7" xlink:href="#ggldcQ"/></g><g><use fill="#4949e7" xlink:href="#ggldcR"/></g><g><use fill="#4949e7" xlink:href="#ggldcS"/></g><g><use fill="#4949e7" xlink:href="#ggldcT"/></g><g><use fill="#4949e7" xlink:href="#ggldcU"/></g><g><use fill="#4949e7" xlink:href="#ggldcV"/></g><g><use fill="#4949e7" xlink:href="#ggldcW"/></g><g><use fill="#e3e9ed" xlink:href="#ggldcX"/></g><g><use fill="#bac8d3" xlink:href="#ggldcY"/></g><g><use fill="#f8fafb" xlink:href="#ggldcZ"/></g><g><use fill="#cfd9e0" xlink:href="#ggldda"/></g><g><use fill="#e3e9ed" xlink:href="#gglddb"/></g><g><use fill="#5eb2fc" xlink:href="#gglddc"/></g><g><use fill="#5eb2fc" xlink:href="#gglddd"/></g><g><use fill="#5eb2fc" xlink:href="#ggldde"/></g><g><use fill="#5eb2fc" xlink:href="#gglddf"/></g><g><use fill="#5eb2fc" xlink:href="#gglddg"/></g><g><use fill="#5eb2fc" xlink:href="#gglddh"/></g><g><use fill="#5eb2fc" xlink:href="#gglddi"/></g><g><use fill="#5eb2fc" xlink:href="#gglddj"/></g><g><use fill="#5eb2fc" xlink:href="#gglddk"/></g><g><use fill="#bac8d3" xlink:href="#gglddl"/></g><g><use fill="#5eb2fc" xlink:href="#gglddm"/></g><g><use fill="#5eb2fc" xlink:href="#gglddn"/></g><g><use fill="#5eb2fc" xlink:href="#gglddo"/></g><g><use fill="#5eb2fc" xlink:href="#gglddp"/></g><g><use fill="#cfd9e0" xlink:href="#gglddq"/></g><g><use fill="#e3e9ed" xlink:href="#gglddr"/></g><g><use fill="#bac8d3" xlink:href="#ggldds"/></g><g><use fill="#bac8d3" xlink:href="#gglddt"/></g><g><use fill="#bac8d3" xlink:href="#gglddu"/></g><g><use fill="#e3e9ed" xlink:href="#gglddv"/></g><g><use fill="#143b63" xlink:href="#gglddw"/></g><g><use fill="#e3e9ed" xlink:href="#gglddx"/></g><g><use fill="#143b63" xlink:href="#gglddy"/></g><g><g><use fill="#fff" xlink:href="#gglddz"/></g><g><use fill="#fff" xlink:href="#gglddA"/></g><g><use fill="#fff" xlink:href="#gglddB"/></g><g><use fill="#fff" xlink:href="#gglddC"/></g></g><g><g><g><g><use fill="#92cdfa" xlink:href="#gglddD"/></g></g></g><g><g><g><use fill="#92cdfa" xlink:href="#gglddE"/></g></g></g><g><g><g><use fill="#92cdfa" xlink:href="#gglddF"/></g></g></g><g><g><g><use fill="#92cdfa" xlink:href="#gglddG"/></g></g></g><g><g><g><use fill="#92cdfa" xlink:href="#gglddH"/></g></g></g><g><g><g><use fill="#92cdfa" xlink:href="#gglddI"/></g></g></g></g><g><use fill="#5eb2fc" xlink:href="#gglddJ"/></g></g></g></svg>